<svg width="958" height="240" viewBox="0 0 958 240" fill="none" xmlns="http://www.w3.org/2000/svg">
<g clip-path="url(#clip0_1877_5053)">
<path d="M132.422 146.242L131.965 142.218L132.236 142.21L132.422 146.242ZM135.577 142.218L135.225 142.207L135.171 144.225L135.233 146.245L135.577 142.218ZM153.668 74.3599C153.668 63.4062 144.745 54.4916 133.772 54.4916C122.803 54.4916 113.877 63.4036 113.877 74.3599C113.877 85.319 122.803 94.2363 133.772 94.2363C144.742 94.2363 153.668 85.3217 153.668 74.3599ZM150.978 74.3599C150.978 83.8368 143.26 91.5463 133.772 91.5463C124.285 91.5463 116.567 83.8395 116.567 74.3599C116.567 64.8884 124.285 57.1816 133.772 57.1816C143.26 57.1816 150.978 64.8911 150.978 74.3599ZM180.148 156.077C179.704 158.476 176.794 159.442 175.021 157.782C169.436 152.599 162.098 149.016 154.698 147.773C153.482 150.463 152.906 152.569 149.191 152.265C149.751 154.019 150.7 156.249 150.402 156.994C150.068 157.825 149.251 158.328 148.374 158.25C145.565 157.992 141.272 157.962 137.945 157.922C137.821 160.233 136.175 161.648 133.772 161.648C131.467 161.648 129.694 160.05 129.592 157.917C126.31 157.96 121.936 157.984 119.106 158.25C118.256 158.328 117.457 157.825 117.132 156.994C116.844 156.252 117.767 154.024 118.31 152.268C114.902 152.553 114.313 151.044 112.841 147.773C105.444 149.016 98.1056 152.599 92.5131 157.79C90.7565 159.437 87.8325 158.479 87.394 156.088C82.9233 131.122 87.3268 113.93 100.804 103.53C96.9812 67.1292 107.938 28.2641 131.055 7.5215C132.605 6.13346 134.934 6.13346 136.484 7.5215C157.974 26.8034 170.854 64.2913 166.738 103.533C180.212 113.93 184.616 131.124 180.148 156.077ZM120.026 27.5001C128.804 29.4127 138.741 29.4127 147.516 27.5001C143.467 20.8101 138.87 15.0777 133.791 10.5208C128.677 15.075 124.078 20.8074 120.026 27.5001ZM111.195 143.956C106.38 132.453 103.087 120.475 101.387 108.262C90.8184 117.629 87.5178 132.19 91.074 153.672C96.7929 148.798 103.935 145.362 111.195 143.956ZM134.924 107.342C134.967 105.561 132.573 105.577 132.616 107.345C132.667 109.187 133.592 157.545 133.592 157.545L134.138 157.502C134.138 157.502 134.867 109.475 134.924 107.342ZM148.274 28.7106C138.862 30.8465 128.664 30.8411 119.268 28.7106C101.054 59.8985 97.6967 106.242 117.501 148.273C120.191 148.093 124.075 147.684 129.38 147.463C129.1 133.161 128.626 108.932 128.586 107.45C128.398 100.248 139.147 100.294 138.959 107.45C138.918 108.953 138.445 133.174 138.165 147.463C142.437 147.636 146.477 147.98 150.009 148.287C167.779 112.111 168.689 63.6699 148.274 28.7106ZM166.155 108.265C164.452 120.477 161.162 132.453 156.347 143.958C163.607 145.365 170.752 148.798 176.465 153.672C180.021 132.195 176.721 117.634 166.155 108.265ZM131.744 178.64V167.88C131.744 165.19 129.054 165.19 129.054 167.88V178.64H131.744ZM139.814 186.71V170.57C139.814 167.88 137.124 167.88 137.124 170.57V186.71H139.814ZM140.331 66.3437C140.992 65.5394 140.121 64.9422 139.526 65.5367L126.076 78.9867C125.358 79.7884 126.074 80.5012 126.881 79.7937L140.331 66.3437ZM135.491 73.8757C135.992 73.2328 135.486 72.8966 134.951 73.3377L124.191 84.0977C123.798 84.4905 124.379 84.9908 124.731 84.6384L135.491 73.8757ZM140.062 71.9927C140.678 71.3875 140.067 71.0055 139.526 71.4574L131.725 78.9894C131.125 79.5812 131.696 80.0977 132.261 79.5247L140.062 71.9927ZM218.082 211.254C217.593 214.837 217.894 218.49 219.043 222.1C215.957 195.894 252.366 185.801 263.207 209.831C266.177 216.419 265.819 223.639 262.849 229.643C264.746 227.138 266.155 224.438 267.005 221.441C270.053 224.266 271.909 229.75 272.17 232.44H178.362C180.32 213.61 200.729 203.415 218.082 211.254ZM12.8219 232.44C9.76602 229.75 7.90723 224.387 7.90723 219.448C7.90723 208.798 16.5394 200.099 27.1891 200.099C33.9706 200.099 39.9344 203.566 43.3695 208.868C40.3325 211.415 37.933 214.735 36.5154 218.625C45.9008 203.792 65.9924 204.05 75.0631 219.055C78.4848 218.939 81.815 219.515 84.8896 220.685C88.5884 215.469 94.5387 212.419 100.779 212.343C101.955 214.786 103.83 216.674 106.055 217.888C91.2596 205.753 115.674 186.31 124.11 203.657C123.419 201.083 122.041 198.998 120.209 197.425C124.344 188.316 137.458 188.174 141.646 197.454C141.67 197.511 141.694 197.573 141.719 197.632C139.481 198.057 137.318 198.877 135.246 200.16C151.109 193.801 166.241 211.12 157.867 226.089C164.097 225.134 170.413 227.06 174.48 232.44C101.745 232.44 85.5917 232.44 12.8219 232.44ZM137.474 225.253C134.345 218.326 127.303 214.396 120.139 214.902C120.156 214.799 120.164 214.697 120.18 214.595C120.123 214.703 120.061 214.808 120.005 214.912C118.028 215.068 116.04 215.561 114.127 216.424C111.564 217.581 109.422 219.278 107.755 221.309C109.309 219.857 111.166 218.635 113.283 217.742C122.316 213.917 132.866 217.344 137.525 225.385C137.509 225.339 137.49 225.299 137.474 225.253Z" fill="#3A5898"/>
<path d="M426.747 118.885L398.774 228.82H372.23L357.342 171.07C357.041 169.967 356.64 168.288 356.139 166.032C355.637 163.776 355.111 161.32 354.56 158.663C354.008 155.956 353.507 153.424 353.056 151.068C352.655 148.662 352.379 146.757 352.229 145.354C352.078 146.757 351.777 148.637 351.326 150.993C350.925 153.349 350.449 155.856 349.897 158.513C349.396 161.17 348.895 163.651 348.394 165.957C347.892 168.263 347.491 170.018 347.19 171.221L332.377 228.82H305.908L277.86 118.885H300.795L314.856 178.891C315.257 180.695 315.709 182.851 316.21 185.357C316.761 187.864 317.288 190.496 317.789 193.253C318.34 195.96 318.817 198.592 319.218 201.148C319.669 203.655 319.995 205.836 320.195 207.69C320.446 205.785 320.772 203.58 321.173 201.073C321.574 198.517 322 195.935 322.451 193.328C322.952 190.671 323.454 188.215 323.955 185.959C324.456 183.703 324.908 181.873 325.309 180.47L341.325 118.885H363.357L379.374 180.47C379.725 181.823 380.126 183.653 380.577 185.959C381.078 188.215 381.58 190.671 382.081 193.328C382.582 195.985 383.034 198.592 383.435 201.148C383.886 203.655 384.212 205.836 384.412 207.69C384.763 205.184 385.239 202.151 385.841 198.592C386.493 194.982 387.169 191.398 387.871 187.839C388.623 184.28 389.275 181.297 389.826 178.891L403.812 118.885H426.747ZM473.443 143.173C481.214 143.173 487.906 144.677 493.521 147.685C499.135 150.642 503.471 154.953 506.529 160.618C509.587 166.283 511.116 173.201 511.116 181.372V192.501H456.9C457.151 198.968 459.081 204.056 462.69 207.766C466.35 211.425 471.413 213.255 477.88 213.255C483.244 213.255 488.157 212.703 492.618 211.601C497.08 210.498 501.667 208.843 506.379 206.638V224.384C502.218 226.439 497.857 227.943 493.295 228.896C488.783 229.848 483.294 230.324 476.827 230.324C468.405 230.324 460.936 228.77 454.419 225.662C447.952 222.554 442.864 217.817 439.154 211.45C435.495 205.084 433.665 197.063 433.665 187.388C433.665 177.562 435.319 169.391 438.628 162.874C441.987 156.307 446.649 151.394 452.614 148.136C458.58 144.827 465.523 143.173 473.443 143.173ZM473.594 159.49C469.132 159.49 465.423 160.919 462.465 163.776C459.557 166.634 457.878 171.12 457.427 177.236H489.61C489.56 173.827 488.934 170.795 487.73 168.138C486.577 165.481 484.823 163.375 482.467 161.821C480.161 160.267 477.203 159.49 473.594 159.49ZM552.699 111.816V139.037C552.699 142.195 552.599 145.328 552.398 148.437C552.248 151.545 552.048 153.951 551.797 155.655H552.699C554.905 152.196 557.913 149.264 561.723 146.857C565.533 144.401 570.47 143.173 576.536 143.173C585.961 143.173 593.605 146.857 599.471 154.227C605.336 161.596 608.269 172.399 608.269 186.636C608.269 196.211 606.915 204.257 604.208 210.773C601.501 217.24 597.716 222.128 592.854 225.437C587.991 228.695 582.351 230.324 575.935 230.324C569.769 230.324 564.906 229.221 561.347 227.016C557.787 224.81 554.905 222.328 552.699 219.571H551.12L547.285 228.82H529.765V111.816H552.699ZM569.167 161.521C565.157 161.521 561.973 162.348 559.617 164.002C557.261 165.656 555.532 168.138 554.429 171.446C553.376 174.755 552.799 178.941 552.699 184.004V186.485C552.699 194.657 553.902 200.923 556.309 205.284C558.715 209.595 563.101 211.751 569.468 211.751C574.18 211.751 577.915 209.57 580.672 205.209C583.479 200.848 584.883 194.556 584.883 186.335C584.883 178.114 583.479 171.923 580.672 167.762C577.865 163.601 574.03 161.521 569.167 161.521ZM671.433 228.82H648.122V138.285H618.27V118.885H701.285V138.285H671.433V228.82ZM815.732 228.82H786.105L738.281 145.654H737.604C737.805 149.113 737.98 152.597 738.131 156.106C738.281 159.616 738.432 163.125 738.582 166.634C738.732 170.093 738.883 173.577 739.033 177.086V228.82H718.204V118.885H747.605L795.354 201.224H795.881C795.781 197.815 795.655 194.431 795.505 191.072C795.354 187.714 795.204 184.355 795.054 180.996C794.953 177.637 794.853 174.279 794.753 170.92V118.885H815.732V228.82ZM885.213 167.085H928.826V224.083C923.061 225.988 917.071 227.517 910.854 228.67C904.638 229.773 897.595 230.324 889.725 230.324C878.796 230.324 869.522 228.169 861.902 223.857C854.283 219.546 848.493 213.18 844.532 204.758C840.572 196.336 838.592 185.984 838.592 173.702C838.592 162.172 840.798 152.196 845.209 143.774C849.671 135.353 856.162 128.836 864.685 124.224C873.257 119.612 883.709 117.306 896.041 117.306C901.856 117.306 907.596 117.932 913.261 119.186C918.925 120.439 924.064 122.068 928.676 124.073L920.931 142.722C917.572 141.017 913.737 139.589 909.426 138.436C905.115 137.283 900.603 136.706 895.891 136.706C889.123 136.706 883.233 138.26 878.22 141.368C873.257 144.476 869.397 148.838 866.64 154.452C863.933 160.017 862.579 166.584 862.579 174.153C862.579 181.322 863.557 187.688 865.512 193.253C867.467 198.767 870.55 203.104 874.761 206.262C878.972 209.37 884.461 210.924 891.229 210.924C894.537 210.924 897.319 210.773 899.575 210.473C901.881 210.122 904.037 209.771 906.042 209.42V186.485H885.213V167.085Z" fill="#3A5898"/>
<path d="M286.169 26.5898V72.3398H280.629V26.5898H286.169ZM305.857 40.1123L291.799 55.1538L283.936 63.3149L283.489 57.4473L289.118 50.7158L299.126 40.1123H305.857ZM300.824 72.3398L289.327 56.9707L292.186 52.0562L307.317 72.3398H300.824ZM317.057 46.9927V72.3398H311.546V40.1123H316.759L317.057 46.9927ZM315.746 55.0049L313.453 54.9155C313.472 52.7114 313.8 50.6761 314.436 48.8096C315.071 46.9232 315.965 45.285 317.116 43.895C318.268 42.505 319.638 41.4328 321.227 40.6782C322.835 39.9038 324.612 39.5166 326.558 39.5166C328.147 39.5166 329.576 39.735 330.847 40.1719C332.118 40.5889 333.2 41.264 334.094 42.1973C335.007 43.1305 335.702 44.3418 336.179 45.8311C336.655 47.3005 336.894 49.0975 336.894 51.2222V72.3398H331.354V51.1626C331.354 49.4748 331.105 48.1245 330.609 47.1118C330.112 46.0793 329.388 45.3346 328.435 44.8779C327.481 44.4014 326.31 44.1631 324.92 44.1631C323.55 44.1631 322.299 44.451 321.167 45.0269C320.055 45.6027 319.092 46.397 318.278 47.4097C317.484 48.4224 316.858 49.584 316.401 50.8945C315.965 52.1852 315.746 53.5553 315.746 55.0049ZM343.804 56.5835V55.8984C343.804 53.5752 344.141 51.4207 344.816 49.4351C345.492 47.4295 346.465 45.6921 347.735 44.2227C349.006 42.7334 350.545 41.5817 352.352 40.7676C354.159 39.9336 356.184 39.5166 358.428 39.5166C360.692 39.5166 362.727 39.9336 364.534 40.7676C366.361 41.5817 367.91 42.7334 369.181 44.2227C370.471 45.6921 371.454 47.4295 372.129 49.4351C372.805 51.4207 373.142 53.5752 373.142 55.8984V56.5835C373.142 58.9067 372.805 61.0612 372.129 63.0469C371.454 65.0326 370.471 66.77 369.181 68.2593C367.91 69.7287 366.371 70.8804 364.564 71.7144C362.777 72.5285 360.751 72.9355 358.488 72.9355C356.224 72.9355 354.189 72.5285 352.382 71.7144C350.575 70.8804 349.026 69.7287 347.735 68.2593C346.465 66.77 345.492 65.0326 344.816 63.0469C344.141 61.0612 343.804 58.9067 343.804 56.5835ZM349.314 55.8984V56.5835C349.314 58.1919 349.503 59.7109 349.88 61.1406C350.257 62.5505 350.823 63.8014 351.578 64.8936C352.352 65.9857 353.315 66.8494 354.467 67.4849C355.618 68.1004 356.959 68.4082 358.488 68.4082C359.997 68.4082 361.317 68.1004 362.449 67.4849C363.601 66.8494 364.554 65.9857 365.309 64.8936C366.063 63.8014 366.629 62.5505 367.006 61.1406C367.403 59.7109 367.602 58.1919 367.602 56.5835V55.8984C367.602 54.3099 367.403 52.8107 367.006 51.4009C366.629 49.9712 366.053 48.7103 365.279 47.6182C364.524 46.5062 363.571 45.6325 362.419 44.9971C361.288 44.3617 359.957 44.0439 358.428 44.0439C356.919 44.0439 355.589 44.3617 354.437 44.9971C353.305 45.6325 352.352 46.5062 351.578 47.6182C350.823 48.7103 350.257 49.9712 349.88 51.4009C349.503 52.8107 349.314 54.3099 349.314 55.8984ZM388.213 66.6211L396.494 40.1123H400.127L399.413 45.3843L390.983 72.3398H387.439L388.213 66.6211ZM382.644 40.1123L389.703 66.9189L390.209 72.3398H386.486L377.133 40.1123H382.644ZM408.05 66.7104L414.782 40.1123H420.262L410.91 72.3398H407.216L408.05 66.7104ZM400.932 40.1123L409.033 66.1743L409.957 72.3398H406.442L397.774 45.3247L397.06 40.1123H400.932ZM431.908 26.5898V72.3398H426.368V26.5898H431.908ZM454.128 72.9355C451.884 72.9355 449.849 72.5583 448.022 71.8037C446.215 71.0293 444.656 69.9471 443.346 68.5571C442.055 67.1672 441.062 65.519 440.367 63.6128C439.672 61.7065 439.325 59.6216 439.325 57.3579V56.1069C439.325 53.4858 439.712 51.1527 440.486 49.1074C441.261 47.0423 442.313 45.2949 443.644 43.8652C444.974 42.4355 446.483 41.3534 448.171 40.6187C449.859 39.884 451.606 39.5166 453.413 39.5166C455.716 39.5166 457.702 39.9137 459.37 40.708C461.058 41.5023 462.438 42.6143 463.51 44.0439C464.583 45.4538 465.377 47.1217 465.893 49.0479C466.409 50.9541 466.667 53.0391 466.667 55.3027V57.7749H442.601V53.2773H461.157V52.8604C461.078 51.4307 460.78 50.0407 460.264 48.6904C459.767 47.3402 458.973 46.2282 457.881 45.3545C456.789 44.4808 455.299 44.0439 453.413 44.0439C452.162 44.0439 451.01 44.312 449.958 44.8481C448.906 45.3644 448.002 46.1388 447.248 47.1714C446.493 48.2039 445.907 49.4648 445.49 50.9541C445.073 52.4434 444.865 54.161 444.865 56.1069V57.3579C444.865 58.8869 445.073 60.3265 445.49 61.6768C445.927 63.0072 446.553 64.1787 447.367 65.1914C448.201 66.2041 449.203 66.9984 450.375 67.5742C451.566 68.1501 452.917 68.438 454.426 68.438C456.372 68.438 458.02 68.0409 459.37 67.2466C460.72 66.4523 461.902 65.39 462.915 64.0596L466.25 66.7104C465.556 67.7629 464.672 68.7656 463.6 69.7188C462.527 70.6719 461.207 71.4463 459.638 72.042C458.089 72.6377 456.253 72.9355 454.128 72.9355ZM493.415 66.085V26.5898H498.955V72.3398H493.891L493.415 66.085ZM471.731 56.5835V55.958C471.731 53.4958 472.029 51.2619 472.625 49.2563C473.24 47.231 474.104 45.4935 475.216 44.0439C476.348 42.5944 477.688 41.4824 479.237 40.708C480.806 39.9137 482.553 39.5166 484.479 39.5166C486.504 39.5166 488.272 39.874 489.781 40.5889C491.31 41.2839 492.6 42.3065 493.653 43.6567C494.725 44.9871 495.569 46.5955 496.185 48.4819C496.8 50.3683 497.227 52.5029 497.465 54.8857V57.626C497.247 59.9889 496.82 62.1136 496.185 64C495.569 65.8864 494.725 67.4948 493.653 68.8252C492.6 70.1556 491.31 71.1782 489.781 71.8931C488.252 72.5881 486.465 72.9355 484.419 72.9355C482.533 72.9355 480.806 72.5285 479.237 71.7144C477.688 70.9002 476.348 69.7585 475.216 68.2891C474.104 66.8197 473.24 65.0921 472.625 63.1064C472.029 61.1009 471.731 58.9266 471.731 56.5835ZM477.271 55.958V56.5835C477.271 58.1919 477.43 59.701 477.748 61.1108C478.085 62.5207 478.601 63.7617 479.296 64.834C479.991 65.9062 480.875 66.7502 481.947 67.3657C483.02 67.9614 484.3 68.2593 485.79 68.2593C487.616 68.2593 489.116 67.8721 490.287 67.0977C491.479 66.3232 492.432 65.3006 493.146 64.0298C493.861 62.759 494.417 61.3789 494.814 59.8896V52.7114C494.576 51.6193 494.229 50.5669 493.772 49.5542C493.335 48.5216 492.759 47.6082 492.044 46.814C491.349 45.9998 490.486 45.3545 489.453 44.8779C488.44 44.4014 487.239 44.1631 485.849 44.1631C484.34 44.1631 483.039 44.4808 481.947 45.1162C480.875 45.7318 479.991 46.5856 479.296 47.6777C478.601 48.75 478.085 50.001 477.748 51.4307C477.43 52.8405 477.271 54.3496 477.271 55.958ZM528.412 40.1123H533.416V71.6548C533.416 74.4943 532.84 76.9168 531.688 78.9224C530.537 80.9279 528.928 82.4469 526.863 83.4795C524.818 84.5319 522.455 85.0581 519.774 85.0581C518.662 85.0581 517.352 84.8794 515.843 84.522C514.354 84.1844 512.884 83.5986 511.435 82.7646C510.005 81.9505 508.804 80.8485 507.831 79.4585L510.72 76.1821C512.07 77.8104 513.48 78.9422 514.949 79.5776C516.438 80.2131 517.908 80.5308 519.357 80.5308C521.105 80.5308 522.614 80.2031 523.885 79.5479C525.156 78.8926 526.139 77.9196 526.833 76.6289C527.548 75.3581 527.906 73.7894 527.906 71.9229V47.2012L528.412 40.1123ZM506.222 56.5835V55.958C506.222 53.4958 506.51 51.2619 507.086 49.2563C507.682 47.231 508.526 45.4935 509.618 44.0439C510.73 42.5944 512.07 41.4824 513.639 40.708C515.207 39.9137 516.975 39.5166 518.94 39.5166C520.966 39.5166 522.733 39.874 524.242 40.5889C525.771 41.2839 527.062 42.3065 528.114 43.6567C529.187 44.9871 530.03 46.5955 530.646 48.4819C531.262 50.3683 531.688 52.5029 531.927 54.8857V57.626C531.708 59.9889 531.281 62.1136 530.646 64C530.03 65.8864 529.187 67.4948 528.114 68.8252C527.062 70.1556 525.771 71.1782 524.242 71.8931C522.713 72.5881 520.926 72.9355 518.881 72.9355C516.955 72.9355 515.207 72.5285 513.639 71.7144C512.09 70.9002 510.759 69.7585 509.647 68.2891C508.535 66.8197 507.682 65.0921 507.086 63.1064C506.51 61.1009 506.222 58.9266 506.222 56.5835ZM511.732 55.958V56.5835C511.732 58.1919 511.891 59.701 512.209 61.1108C512.547 62.5207 513.053 63.7617 513.728 64.834C514.423 65.9062 515.307 66.7502 516.379 67.3657C517.451 67.9614 518.732 68.2593 520.221 68.2593C522.048 68.2593 523.557 67.8721 524.749 67.0977C525.94 66.3232 526.883 65.3006 527.578 64.0298C528.293 62.759 528.849 61.3789 529.246 59.8896V52.7114C529.028 51.6193 528.69 50.5669 528.233 49.5542C527.797 48.5216 527.221 47.6082 526.506 46.814C525.811 45.9998 524.947 45.3545 523.915 44.8779C522.882 44.4014 521.671 44.1631 520.281 44.1631C518.772 44.1631 517.471 44.4808 516.379 45.1162C515.307 45.7318 514.423 46.5856 513.728 47.6777C513.053 48.75 512.547 50.001 512.209 51.4307C511.891 52.8405 511.732 54.3496 511.732 55.958ZM555.159 72.9355C552.915 72.9355 550.88 72.5583 549.053 71.8037C547.246 71.0293 545.688 69.9471 544.377 68.5571C543.086 67.1672 542.093 65.519 541.398 63.6128C540.703 61.7065 540.356 59.6216 540.356 57.3579V56.1069C540.356 53.4858 540.743 51.1527 541.518 49.1074C542.292 47.0423 543.344 45.2949 544.675 43.8652C546.005 42.4355 547.514 41.3534 549.202 40.6187C550.89 39.884 552.637 39.5166 554.444 39.5166C556.748 39.5166 558.733 39.9137 560.401 40.708C562.089 41.5023 563.469 42.6143 564.542 44.0439C565.614 45.4538 566.408 47.1217 566.924 49.0479C567.441 50.9541 567.699 53.0391 567.699 55.3027V57.7749H543.632V53.2773H562.188V52.8604C562.109 51.4307 561.811 50.0407 561.295 48.6904C560.799 47.3402 560.004 46.2282 558.912 45.3545C557.82 44.4808 556.331 44.0439 554.444 44.0439C553.193 44.0439 552.042 44.312 550.989 44.8481C549.937 45.3644 549.033 46.1388 548.279 47.1714C547.524 48.2039 546.938 49.4648 546.521 50.9541C546.104 52.4434 545.896 54.161 545.896 56.1069V57.3579C545.896 58.8869 546.104 60.3265 546.521 61.6768C546.958 63.0072 547.584 64.1787 548.398 65.1914C549.232 66.2041 550.235 66.9984 551.406 67.5742C552.598 68.1501 553.948 68.438 555.457 68.438C557.403 68.438 559.051 68.0409 560.401 67.2466C561.752 66.4523 562.933 65.39 563.946 64.0596L567.282 66.7104C566.587 67.7629 565.703 68.7656 564.631 69.7188C563.559 70.6719 562.238 71.4463 560.669 72.042C559.121 72.6377 557.284 72.9355 555.159 72.9355ZM595.25 40.1123V72.3398H589.71V40.1123H595.25ZM589.293 31.564C589.293 30.6704 589.561 29.9159 590.097 29.3003C590.653 28.6847 591.467 28.377 592.54 28.377C593.592 28.377 594.396 28.6847 594.952 29.3003C595.528 29.9159 595.816 30.6704 595.816 31.564C595.816 32.4178 595.528 33.1525 594.952 33.7681C594.396 34.3638 593.592 34.6616 592.54 34.6616C591.467 34.6616 590.653 34.3638 590.097 33.7681C589.561 33.1525 589.293 32.4178 589.293 31.564ZM622.861 63.7915C622.861 62.9972 622.682 62.2625 622.325 61.5874C621.987 60.8924 621.282 60.2669 620.21 59.7109C619.158 59.1351 617.569 58.6387 615.444 58.2217C613.657 57.8444 612.039 57.3976 610.589 56.8813C609.16 56.3651 607.938 55.7396 606.926 55.0049C605.933 54.2702 605.168 53.4064 604.632 52.4136C604.096 51.4207 603.828 50.2591 603.828 48.9287C603.828 47.6579 604.106 46.4565 604.662 45.3247C605.238 44.1929 606.042 43.1901 607.075 42.3164C608.127 41.4427 609.388 40.7576 610.857 40.2612C612.327 39.7648 613.965 39.5166 615.772 39.5166C618.353 39.5166 620.557 39.9733 622.384 40.8867C624.211 41.8001 625.611 43.0213 626.584 44.5503C627.557 46.0594 628.043 47.7373 628.043 49.584H622.533C622.533 48.6904 622.265 47.8267 621.729 46.9927C621.213 46.1388 620.448 45.4339 619.436 44.8779C618.443 44.3219 617.222 44.0439 615.772 44.0439C614.243 44.0439 613.002 44.2822 612.049 44.7588C611.116 45.2155 610.431 45.8013 609.994 46.5161C609.577 47.231 609.368 47.9855 609.368 48.7798C609.368 49.3755 609.467 49.9116 609.666 50.3882C609.884 50.8449 610.262 51.2718 610.798 51.6689C611.334 52.0462 612.089 52.4036 613.062 52.7412C614.035 53.0788 615.276 53.4163 616.785 53.7539C619.426 54.3496 621.6 55.0645 623.308 55.8984C625.015 56.7324 626.286 57.755 627.12 58.9663C627.954 60.1776 628.371 61.647 628.371 63.3745C628.371 64.7843 628.073 66.075 627.478 67.2466C626.902 68.4181 626.058 69.4308 624.946 70.2847C623.854 71.1187 622.543 71.7739 621.014 72.2505C619.505 72.7072 617.807 72.9355 615.921 72.9355C613.081 72.9355 610.679 72.4292 608.713 71.4165C606.747 70.4038 605.258 69.0933 604.245 67.4849C603.232 65.8765 602.726 64.1787 602.726 62.3916H608.266C608.346 63.9007 608.782 65.1021 609.577 65.9956C610.371 66.8693 611.344 67.4948 612.496 67.8721C613.647 68.2295 614.789 68.4082 615.921 68.4082C617.43 68.4082 618.691 68.2096 619.704 67.8125C620.736 67.4154 621.521 66.8693 622.057 66.1743C622.593 65.4793 622.861 64.6851 622.861 63.7915ZM669.743 66.8296V50.2393C669.743 48.9684 669.485 47.8664 668.968 46.9331C668.472 45.98 667.717 45.2453 666.705 44.729C665.692 44.2127 664.441 43.9546 662.952 43.9546C661.562 43.9546 660.34 44.1929 659.288 44.6694C658.256 45.146 657.441 45.7715 656.846 46.5459C656.27 47.3203 655.982 48.1543 655.982 49.0479H650.472C650.472 47.8962 650.77 46.7544 651.365 45.6226C651.961 44.4907 652.815 43.4681 653.927 42.5547C655.059 41.6214 656.409 40.8867 657.978 40.3506C659.566 39.7946 661.333 39.5166 663.279 39.5166C665.622 39.5166 667.688 39.9137 669.475 40.708C671.282 41.5023 672.691 42.7036 673.704 44.312C674.737 45.9006 675.253 47.8962 675.253 50.2988V65.3105C675.253 66.3828 675.342 67.5246 675.521 68.7358C675.72 69.9471 676.007 70.9896 676.385 71.8633V72.3398H670.636C670.358 71.7044 670.14 70.8605 669.981 69.8081C669.822 68.7358 669.743 67.743 669.743 66.8296ZM670.696 52.8008L670.755 56.6729H665.186C663.617 56.6729 662.217 56.8019 660.986 57.0601C659.755 57.2983 658.722 57.6657 657.888 58.1621C657.054 58.6585 656.419 59.284 655.982 60.0386C655.545 60.7733 655.327 61.637 655.327 62.6299C655.327 63.6426 655.555 64.5659 656.012 65.3999C656.468 66.2339 657.153 66.8991 658.067 67.3955C659 67.8721 660.142 68.1104 661.492 68.1104C663.18 68.1104 664.669 67.7529 665.96 67.0381C667.251 66.3232 668.273 65.4495 669.028 64.417C669.802 63.3844 670.219 62.3817 670.279 61.4087L672.632 64.0596C672.493 64.8936 672.116 65.8169 671.5 66.8296C670.884 67.8423 670.06 68.8153 669.028 69.7485C668.015 70.6619 666.804 71.4264 665.394 72.042C664.004 72.6377 662.435 72.9355 660.688 72.9355C658.504 72.9355 656.588 72.5086 654.939 71.6548C653.311 70.8009 652.04 69.6592 651.127 68.2295C650.233 66.7799 649.787 65.1616 649.787 63.3745C649.787 61.647 650.124 60.1279 650.799 58.8174C651.474 57.487 652.447 56.3849 653.718 55.5112C654.989 54.6177 656.518 53.9425 658.305 53.4858C660.092 53.0291 662.088 52.8008 664.292 52.8008H670.696ZM689.431 46.9927V72.3398H683.92V40.1123H689.133L689.431 46.9927ZM688.12 55.0049L685.827 54.9155C685.847 52.7114 686.174 50.6761 686.81 48.8096C687.445 46.9232 688.339 45.285 689.49 43.895C690.642 42.505 692.012 41.4328 693.601 40.6782C695.209 39.9038 696.986 39.5166 698.932 39.5166C700.521 39.5166 701.95 39.735 703.221 40.1719C704.492 40.5889 705.574 41.264 706.468 42.1973C707.381 43.1305 708.076 44.3418 708.553 45.8311C709.029 47.3005 709.268 49.0975 709.268 51.2222V72.3398H703.728V51.1626C703.728 49.4748 703.479 48.1245 702.983 47.1118C702.486 46.0793 701.762 45.3346 700.809 44.8779C699.855 44.4014 698.684 44.1631 697.294 44.1631C695.924 44.1631 694.673 44.451 693.541 45.0269C692.429 45.6027 691.466 46.397 690.652 47.4097C689.858 48.4224 689.232 49.584 688.775 50.8945C688.339 52.1852 688.12 53.5553 688.12 55.0049ZM751.771 66.8296V50.2393C751.771 48.9684 751.513 47.8664 750.997 46.9331C750.5 45.98 749.746 45.2453 748.733 44.729C747.72 44.2127 746.469 43.9546 744.98 43.9546C743.59 43.9546 742.369 44.1929 741.316 44.6694C740.284 45.146 739.47 45.7715 738.874 46.5459C738.298 47.3203 738.01 48.1543 738.01 49.0479H732.5C732.5 47.8962 732.798 46.7544 733.394 45.6226C733.989 44.4907 734.843 43.4681 735.955 42.5547C737.087 41.6214 738.437 40.8867 740.006 40.3506C741.594 39.7946 743.362 39.5166 745.308 39.5166C747.651 39.5166 749.716 39.9137 751.503 40.708C753.31 41.5023 754.72 42.7036 755.732 44.312C756.765 45.9006 757.281 47.8962 757.281 50.2988V65.3105C757.281 66.3828 757.371 67.5246 757.549 68.7358C757.748 69.9471 758.036 70.9896 758.413 71.8633V72.3398H752.665C752.387 71.7044 752.168 70.8605 752.009 69.8081C751.85 68.7358 751.771 67.743 751.771 66.8296ZM752.724 52.8008L752.784 56.6729H747.214C745.645 56.6729 744.245 56.8019 743.014 57.0601C741.783 57.2983 740.75 57.6657 739.917 58.1621C739.083 58.6585 738.447 59.284 738.01 60.0386C737.573 60.7733 737.355 61.637 737.355 62.6299C737.355 63.6426 737.583 64.5659 738.04 65.3999C738.497 66.2339 739.182 66.8991 740.095 67.3955C741.028 67.8721 742.17 68.1104 743.521 68.1104C745.208 68.1104 746.698 67.7529 747.988 67.0381C749.279 66.3232 750.302 65.4495 751.056 64.417C751.831 63.3844 752.248 62.3817 752.307 61.4087L754.66 64.0596C754.521 64.8936 754.144 65.8169 753.528 66.8296C752.913 67.8423 752.089 68.8153 751.056 69.7485C750.043 70.6619 748.832 71.4264 747.422 72.042C746.032 72.6377 744.464 72.9355 742.716 72.9355C740.532 72.9355 738.616 72.5086 736.968 71.6548C735.34 70.8009 734.069 69.6592 733.155 68.2295C732.262 66.7799 731.815 65.1616 731.815 63.3745C731.815 61.647 732.153 60.1279 732.828 58.8174C733.503 57.487 734.476 56.3849 735.747 55.5112C737.017 54.6177 738.546 53.9425 740.333 53.4858C742.121 53.0291 744.116 52.8008 746.32 52.8008H752.724ZM778.846 68.4082C780.156 68.4082 781.368 68.1401 782.479 67.604C783.591 67.0679 784.505 66.3332 785.22 65.3999C785.935 64.4468 786.342 63.3646 786.441 62.1533H791.683C791.584 64.0596 790.938 65.8368 789.747 67.4849C788.576 69.1131 787.037 70.4336 785.13 71.4463C783.224 72.4391 781.129 72.9355 778.846 72.9355C776.423 72.9355 774.308 72.5086 772.501 71.6548C770.714 70.8009 769.225 69.6294 768.034 68.1401C766.862 66.6509 765.979 64.9432 765.383 63.0171C764.807 61.0711 764.519 59.016 764.519 56.8516V55.6006C764.519 53.4362 764.807 51.391 765.383 49.4648C765.979 47.5189 766.862 45.8013 768.034 44.312C769.225 42.8228 770.714 41.6512 772.501 40.7974C774.308 39.9435 776.423 39.5166 778.846 39.5166C781.368 39.5166 783.572 40.0329 785.458 41.0654C787.344 42.0781 788.824 43.4681 789.896 45.2354C790.988 46.9827 791.584 48.9684 791.683 51.1924H786.441C786.342 49.862 785.964 48.6606 785.309 47.5884C784.674 46.5161 783.8 45.6623 782.688 45.0269C781.596 44.3716 780.315 44.0439 778.846 44.0439C777.158 44.0439 775.738 44.3815 774.586 45.0566C773.455 45.7119 772.551 46.6055 771.876 47.7373C771.221 48.8493 770.744 50.0903 770.446 51.4604C770.168 52.8107 770.029 54.1908 770.029 55.6006V56.8516C770.029 58.2614 770.168 59.6514 770.446 61.0215C770.724 62.3916 771.191 63.6326 771.846 64.7446C772.521 65.8566 773.425 66.7502 774.557 67.4253C775.708 68.0806 777.138 68.4082 778.846 68.4082ZM811.371 40.1123V44.3418H793.947V40.1123H811.371ZM799.844 32.2788H805.354V64.3574C805.354 65.4495 805.523 66.2736 805.861 66.8296C806.198 67.3856 806.635 67.7529 807.171 67.9316C807.708 68.1104 808.283 68.1997 808.899 68.1997C809.356 68.1997 809.832 68.16 810.329 68.0806C810.845 67.9813 811.232 67.9019 811.49 67.8423L811.52 72.3398C811.083 72.4788 810.507 72.6079 809.792 72.7271C809.097 72.866 808.254 72.9355 807.261 72.9355C805.91 72.9355 804.669 72.6675 803.538 72.1313C802.406 71.5952 801.502 70.7017 800.827 69.4507C800.172 68.1799 799.844 66.4722 799.844 64.3276V32.2788ZM823.821 40.1123V72.3398H818.281V40.1123H823.821ZM817.864 31.564C817.864 30.6704 818.132 29.9159 818.668 29.3003C819.224 28.6847 820.039 28.377 821.111 28.377C822.163 28.377 822.967 28.6847 823.523 29.3003C824.099 29.9159 824.387 30.6704 824.387 31.564C824.387 32.4178 824.099 33.1525 823.523 33.7681C822.967 34.3638 822.163 34.6616 821.111 34.6616C820.039 34.6616 819.224 34.3638 818.668 33.7681C818.132 33.1525 817.864 32.4178 817.864 31.564ZM842.467 67.3657L851.283 40.1123H856.913L845.326 72.3398H841.633L842.467 67.3657ZM835.11 40.1123L844.194 67.5146L844.82 72.3398H841.126L829.451 40.1123H835.11ZM868.201 40.1123V72.3398H862.661V40.1123H868.201ZM862.244 31.564C862.244 30.6704 862.512 29.9159 863.048 29.3003C863.604 28.6847 864.418 28.377 865.491 28.377C866.543 28.377 867.347 28.6847 867.903 29.3003C868.479 29.9159 868.767 30.6704 868.767 31.564C868.767 32.4178 868.479 33.1525 867.903 33.7681C867.347 34.3638 866.543 34.6616 865.491 34.6616C864.418 34.6616 863.604 34.3638 863.048 33.7681C862.512 33.1525 862.244 32.4178 862.244 31.564ZM890.54 40.1123V44.3418H873.116V40.1123H890.54ZM879.013 32.2788H884.523V64.3574C884.523 65.4495 884.692 66.2736 885.03 66.8296C885.367 67.3856 885.804 67.7529 886.34 67.9316C886.876 68.1104 887.452 68.1997 888.068 68.1997C888.525 68.1997 889.001 68.16 889.498 68.0806C890.014 67.9813 890.401 67.9019 890.659 67.8423L890.689 72.3398C890.252 72.4788 889.676 72.6079 888.961 72.7271C888.266 72.866 887.423 72.9355 886.43 72.9355C885.079 72.9355 883.838 72.6675 882.707 72.1313C881.575 71.5952 880.671 70.7017 879.996 69.4507C879.341 68.1799 879.013 66.4722 879.013 64.3276V32.2788ZM906.058 69.0039L915.023 40.1123H920.921L907.994 77.314C907.696 78.1082 907.299 78.9621 906.803 79.8755C906.326 80.8088 905.711 81.6924 904.956 82.5264C904.201 83.3604 903.288 84.0355 902.216 84.5518C901.163 85.0879 899.903 85.356 898.433 85.356C897.996 85.356 897.44 85.2964 896.765 85.1772C896.09 85.0581 895.613 84.9588 895.335 84.8794L895.306 80.4116C895.465 80.4315 895.713 80.4513 896.05 80.4712C896.408 80.5109 896.656 80.5308 896.795 80.5308C898.046 80.5308 899.108 80.362 899.982 80.0244C900.856 79.7067 901.59 79.1606 902.186 78.3862C902.802 77.6317 903.328 76.5892 903.765 75.2588L906.058 69.0039ZM899.476 40.1123L907.845 65.1318L909.275 70.9399L905.313 72.9653L893.459 40.1123H899.476Z" fill="#3A5898"/>
</g>
<defs>
<clipPath id="clip0_1877_5053">
<rect width="958" height="240" fill="white"/>
</clipPath>
</defs>
</svg>
