<svg width="42" height="42" viewBox="0 0 42 42" fill="none" xmlns="http://www.w3.org/2000/svg">
<rect width="42" height="42" rx="10.29" fill="#D9D9D9"/>
<rect width="42" height="42" rx="10.29" fill="url(#paint0_linear_456_333)"/>
<rect width="42" height="42" rx="10.29" fill="url(#paint1_linear_456_333)"/>
<rect x="0.397917" y="0.397917" width="41.2042" height="41.2042" rx="9.89208" stroke="white" stroke-opacity="0.2" stroke-width="0.795833"/>
<g filter="url(#filter0_dd_456_333)">
<path d="M25.8466 31.8123C25.8455 28.634 25.8455 25.4796 25.8455 22.3063C25.7524 22.3 25.6782 22.2904 25.604 22.2904C22.9806 22.2897 20.3572 22.2851 17.7339 22.2923C16.7405 22.295 15.856 22.582 15.1795 23.3647C14.8416 23.7557 14.6107 24.2032 14.5993 24.718C14.5755 25.798 14.558 26.8802 14.6007 27.959C14.6389 28.9244 15.2392 29.5426 16.0359 29.998C16.5848 30.3118 17.1863 30.3917 17.8006 30.3952C19.1165 30.4029 20.4325 30.4015 21.7485 30.396C22.3244 30.3936 22.7622 30.6136 23.0302 31.1387C23.4287 31.9197 22.859 32.9555 21.9871 32.9666C20.319 32.9878 18.6463 33.0393 16.9828 32.9462C14.9242 32.8309 12.7588 31.3256 12.1486 28.9814C12.0498 28.6021 12.0212 28.1965 12.0149 27.8022C11.9982 26.7737 11.9906 25.7441 12.0187 24.716C12.0579 23.2821 12.6707 22.11 13.7209 21.1569C13.7766 21.1063 13.834 21.0575 13.8724 21.0239C13.549 20.6519 13.2084 20.3093 12.9249 19.9242C12.2986 19.073 11.9919 18.11 12.0049 17.0438C12.0167 16.067 11.9915 15.0895 12.0144 14.113C12.0538 12.4343 12.7917 11.1151 14.1353 10.1388C15.1818 9.37831 16.3564 8.99849 17.6533 9C20.7841 9.00366 23.9149 8.99989 27.0457 9.00184C27.7682 9.00229 28.2783 9.41166 28.3912 10.0675C28.5238 10.8382 27.9901 11.525 27.213 11.5808C27.1016 11.5888 26.9894 11.5851 26.8776 11.5851C23.85 11.5853 20.8224 11.5821 17.7948 11.5874C16.9696 11.5888 16.1916 11.7632 15.5371 12.3138C14.9318 12.823 14.5809 13.4587 14.5795 14.2663C14.5779 15.1828 14.5768 16.0993 14.5797 17.0157C14.583 18.0812 15.1425 18.7892 16.0274 19.2925C16.5692 19.6007 17.1579 19.6891 17.7655 19.6896C20.8447 19.692 23.9239 19.6903 27.0031 19.691C27.9185 19.6912 28.4364 20.2524 28.4326 21.1695C28.4205 24.161 28.4257 27.1525 28.4244 30.144C28.4241 30.6455 28.4268 31.147 28.4236 31.6484C28.4189 32.3938 27.9166 32.9435 27.1978 32.995C26.5273 33.0431 25.9633 32.5589 25.8466 31.8123Z" fill="white"/>
<path d="M28.9545 16.0566C28.7005 17.1117 27.7172 17.719 26.6912 17.4735C25.6855 17.2329 25.0743 16.2408 25.3036 15.2214C25.5279 14.2242 26.5242 13.5828 27.5091 13.8015C28.5523 14.0332 29.1791 14.999 28.9545 16.0566Z" fill="white"/>
</g>
<defs>
<filter id="filter0_dd_456_333" x="6" y="6" width="29" height="36" filterUnits="userSpaceOnUse" color-interpolation-filters="sRGB">
<feFlood flood-opacity="0" result="BackgroundImageFix"/>
<feColorMatrix in="SourceAlpha" type="matrix" values="0 0 0 0 0 0 0 0 0 0 0 0 0 0 0 0 0 0 127 0" result="hardAlpha"/>
<feOffset dy="3"/>
<feGaussianBlur stdDeviation="3"/>
<feComposite in2="hardAlpha" operator="out"/>
<feColorMatrix type="matrix" values="0 0 0 0 0 0 0 0 0 0 0 0 0 0 0 0 0 0 0.12 0"/>
<feBlend mode="normal" in2="BackgroundImageFix" result="effect1_dropShadow_456_333"/>
<feColorMatrix in="SourceAlpha" type="matrix" values="0 0 0 0 0 0 0 0 0 0 0 0 0 0 0 0 0 0 127 0" result="hardAlpha"/>
<feOffset dy="1"/>
<feGaussianBlur stdDeviation="1"/>
<feComposite in2="hardAlpha" operator="out"/>
<feColorMatrix type="matrix" values="0 0 0 0 0.268386 0 0 0 0 0.00320339 0 0 0 0 0.549167 0 0 0 0.8 0"/>
<feBlend mode="normal" in2="effect1_dropShadow_456_333" result="effect2_dropShadow_456_333"/>
<feBlend mode="normal" in="SourceGraphic" in2="effect2_dropShadow_456_333" result="shape"/>
</filter>
<linearGradient id="paint0_linear_456_333" x1="21" y1="0" x2="21" y2="42" gradientUnits="userSpaceOnUse">
<stop stop-color="#010B2C"/>
<stop offset="1" stop-color="#1C2233"/>
</linearGradient>
<linearGradient id="paint1_linear_456_333" x1="21" y1="0" x2="21" y2="42" gradientUnits="userSpaceOnUse">
<stop stop-color="#7C00FF"/>
<stop offset="1" stop-color="#6220A7"/>
</linearGradient>
</defs>
</svg>
