<svg width="46" height="46" viewBox="0 0 46 46" fill="none" xmlns="http://www.w3.org/2000/svg">
<rect x="2" y="2" width="42" height="42" rx="10.29" fill="#D9D9D9"/>
<rect x="2" y="2" width="42" height="42" rx="10.29" fill="#17283F"/>
<rect x="2.39792" y="2.39792" width="41.2042" height="41.2042" rx="9.89208" stroke="white" stroke-opacity="0.2" stroke-width="0.795833"/>
<g filter="url(#filter0_d_514_4)">
<path d="M28.8337 22.0149C29.2743 22.1617 29.666 22.2596 30.0087 22.4065C32.1138 23.3366 33.4357 24.9032 33.8763 27.1062C34.4148 29.6518 33.4846 32.0506 31.2816 33.6661C30.0576 34.5473 28.6869 34.939 27.1692 34.939C25.0151 34.939 22.861 34.9879 20.658 34.9879C20.3642 34.9879 20.0705 34.89 19.8257 34.7432C19.3851 34.4494 19.2872 34.0578 19.4341 33.5682C19.5809 33.1276 19.9236 32.8339 20.4621 32.785C21.6861 32.785 22.861 32.785 24.0849 32.785C25.2599 32.785 26.4349 32.785 27.6098 32.785C29.7639 32.785 31.6243 30.8757 31.7222 28.7217C31.8201 26.5187 30.2045 24.6584 28.0994 24.2178C28.0015 24.2178 27.9036 24.2178 27.8056 24.2178C25.7984 24.2178 23.7912 24.2178 21.784 24.2178C21.735 24.2178 21.6861 24.2178 21.5881 24.2178C21.5881 24.6584 21.5881 25.099 21.5881 25.5886C21.5881 26.0781 21.5881 26.5677 21.5881 27.0572C21.5881 27.302 21.6371 27.3999 21.9308 27.3999C23.1548 27.3999 24.3787 27.3999 25.5536 27.3999C25.7495 27.3999 25.9453 27.302 26.0922 27.1551C26.9734 26.4208 27.7567 26.5677 28.3931 26.9593C29.2254 27.5468 29.4212 28.4769 29.0296 29.3581C28.54 30.3372 27.0713 30.6799 26.239 29.8966C25.9942 29.6518 25.7495 29.5539 25.4068 29.5539C23.7912 29.5539 22.1756 29.5539 20.5601 29.5539C19.8257 29.5539 19.4341 29.1623 19.4341 28.428C19.4341 26.6166 19.4341 24.8543 19.4341 23.0429C19.4341 22.3086 19.6788 21.9659 20.4621 21.917C21.6371 21.868 22.8121 21.868 23.987 21.868C26.6307 21.868 28.6379 19.5671 28.2463 16.9235C27.9525 15.1122 26.5328 13.7904 24.9172 13.3988C24.5255 13.3009 24.1339 13.3009 23.7422 13.3009C20.9517 13.3009 18.1122 13.2519 15.3217 13.3009C14.6853 13.3009 14.0488 12.7624 14.0488 12.126C14.0488 11.4895 14.6363 11 15.3217 11C17.0352 11 18.7487 11 20.4621 11C21.6371 11 22.8121 11 23.987 11C26.9244 11.049 29.5191 12.9092 30.3514 15.8465C30.9389 17.9026 30.4983 19.8119 29.2254 21.5743C29.0296 21.7211 28.9316 21.819 28.8337 22.0149Z" fill="#F54756"/>
<path d="M16.203 18.7358C16.203 18.9806 16.203 19.1275 16.203 19.3233C16.203 23.2886 16.203 27.254 16.203 31.2194C16.203 32.0516 16.203 32.8838 16.203 33.765C16.203 34.7441 15.4687 35.2337 14.5385 34.891C14.049 34.6952 14 34.2056 14 33.765C14 32.3453 14 30.9746 14 29.5549C14 25.7853 14 22.0158 14 18.2463C14 18.0015 14 17.8057 14.049 17.5609C14.0979 16.9735 14.5385 16.6308 15.077 16.6308C17.329 16.6308 19.5811 16.6308 21.882 16.6308C22.1758 16.6308 22.3716 16.6308 22.6164 16.386C23.1549 15.7496 24.2319 15.8475 24.6725 16.0433C25.4069 16.4349 25.7985 17.1203 25.7496 17.9036C25.6517 18.6869 25.1132 19.3233 24.3299 19.5191C23.6445 19.7149 23.057 19.4212 22.5185 18.9806C22.4205 18.8827 22.3226 18.8337 22.1758 18.7848C20.1685 18.6869 18.2592 18.7358 16.203 18.7358Z" fill="#F54756"/>
</g>
<defs>
<filter id="filter0_d_514_4" x="13.8504" y="11" width="21.2218" height="25.1964" filterUnits="userSpaceOnUse" color-interpolation-filters="sRGB">
<feFlood flood-opacity="0" result="BackgroundImageFix"/>
<feColorMatrix in="SourceAlpha" type="matrix" values="0 0 0 0 0 0 0 0 0 0 0 0 0 0 0 0 0 0 127 0" result="hardAlpha"/>
<feOffset dx="0.448652" dy="0.598203"/>
<feGaussianBlur stdDeviation="0.299101"/>
<feComposite in2="hardAlpha" operator="out"/>
<feColorMatrix type="matrix" values="0 0 0 0 0 0 0 0 0 0 0 0 0 0 0 0 0 0 0.25 0"/>
<feBlend mode="normal" in2="BackgroundImageFix" result="effect1_dropShadow_514_4"/>
<feBlend mode="normal" in="SourceGraphic" in2="effect1_dropShadow_514_4" result="shape"/>
</filter>
</defs>
</svg>
