<svg width="277" height="70" viewBox="0 0 277 70" fill="none" xmlns="http://www.w3.org/2000/svg">
<path d="M105.792 25.9573C105.792 27.5227 105.405 28.9413 104.679 30.2619C103.953 31.5827 102.743 32.6099 101.001 33.2947C103.034 33.9796 104.534 35.0558 105.55 36.5232C106.566 37.9907 107.05 39.6539 107.05 41.4638C107.05 44.7412 105.889 47.187 103.566 48.7523C101.243 50.3176 97.9044 51.1492 93.5976 51.1492C92.0974 51.1492 90.6458 51.1003 89.2423 50.9535C87.839 50.8068 86.4841 50.5622 85.226 50.2198C83.7259 49.7796 83 48.948 83 47.725V20.0384C83 19.0113 83.5806 18.3263 84.7421 17.984C85.9518 17.6415 87.2584 17.397 88.6133 17.2502C89.9682 17.1035 91.4684 17.0546 93.0652 17.0546C97.0817 17.0546 100.227 17.7883 102.453 19.2069C104.679 20.6744 105.792 22.9246 105.792 25.9573ZM87.2584 31.6805H94.517C96.743 31.6805 98.485 31.1913 99.6465 30.1641C100.808 29.1369 101.389 27.7672 101.389 26.0551C101.389 22.4843 98.6302 20.7233 93.0652 20.7233C91.8071 20.7233 90.7425 20.7722 89.8231 20.87C88.9037 20.9679 88.0811 21.0657 87.3068 21.2125V31.6805H87.2584ZM87.2584 35.2514V46.9424C88.1294 47.1381 89.0972 47.2848 90.2103 47.3827C91.3232 47.4805 92.4846 47.5294 93.5976 47.5294C96.5495 47.5294 98.8238 47.0402 100.324 46.0619C101.872 45.0836 102.647 43.5182 102.647 41.366C102.647 39.5071 101.969 37.9907 100.566 36.9146C99.2109 35.8384 97.1785 35.2514 94.517 35.2514H87.2584Z" fill="#FF4655"/>
<path d="M113.873 17.6904C113.873 16.9566 114.115 16.2718 114.647 15.7826C115.18 15.2446 115.809 15 116.631 15C117.454 15 118.131 15.2446 118.615 15.7826C119.099 16.3208 119.341 16.9566 119.341 17.6904C119.341 18.4242 119.099 19.109 118.615 19.5981C118.131 20.1362 117.454 20.3808 116.631 20.3808C115.809 20.3808 115.131 20.1362 114.647 19.5981C114.115 19.0601 113.873 18.4242 113.873 17.6904ZM118.809 50.4154C118.615 50.4643 118.373 50.5621 117.986 50.6599C117.648 50.7577 117.26 50.8067 116.825 50.8067C115.276 50.8067 114.502 50.1708 114.502 48.85V25.6638C114.696 25.6148 114.938 25.517 115.325 25.4192C115.712 25.3213 116.099 25.2725 116.535 25.2725C118.035 25.2725 118.761 25.9573 118.761 27.2779V50.4154H118.809Z" fill="#FF4655"/>
<path d="M135.601 51.247C133.084 51.247 131.101 50.709 129.551 49.5839C128.003 48.4588 127.229 46.6 127.229 44.0075V18.3264C127.423 18.2775 127.665 18.1797 128.052 18.0818C128.439 17.984 128.826 17.9351 129.261 17.9351C130.762 17.9351 131.488 18.571 131.488 19.8917V26.1041H140.246C140.343 26.2998 140.44 26.5444 140.585 26.8379C140.682 27.1314 140.73 27.4737 140.73 27.8162C140.73 29.0391 140.198 29.6749 139.133 29.6749H131.488V43.714C131.488 45.1325 131.874 46.1598 132.697 46.7467C133.52 47.3337 134.633 47.6272 136.085 47.6272C136.713 47.6272 137.391 47.5295 138.117 47.2849C138.842 47.0892 139.472 46.7957 140.004 46.5511C140.198 46.7467 140.392 47.0402 140.585 47.3827C140.779 47.725 140.876 48.0675 140.876 48.5078C140.876 49.2904 140.392 49.9264 139.472 50.4644C138.505 51.0025 137.246 51.247 135.601 51.247Z" fill="#FF4655"/>
<path d="M171.469 42.3443H158.403L155.79 50.6112C155.451 50.7579 155.112 50.8557 154.774 50.9535C154.435 51.0025 154 51.0513 153.467 51.0513C152.597 51.0513 151.822 50.8557 151.29 50.4644C150.709 50.073 150.418 49.4861 150.418 48.7033C150.418 48.312 150.468 47.9207 150.565 47.5294C150.66 47.138 150.806 46.7467 150.999 46.2576C151.483 44.7412 152.113 42.7846 152.935 40.3876C153.758 37.9907 154.678 35.4471 155.596 32.8056C156.565 30.1152 157.483 27.5227 158.452 24.9301C159.42 22.3375 160.242 20.1362 160.968 18.3263C161.307 18.1307 161.888 17.8861 162.613 17.6905C163.339 17.4948 164.114 17.397 164.936 17.397C165.952 17.397 166.921 17.5437 167.694 17.8372C168.517 18.1307 169.05 18.6198 169.339 19.3536C170.114 21.4081 170.985 23.7561 171.904 26.3486C172.824 28.9413 173.744 31.6316 174.662 34.4198C175.582 37.208 176.501 39.8984 177.324 42.5888C178.195 45.2793 178.969 47.6762 179.647 49.8284C179.308 50.1709 178.921 50.4644 178.389 50.709C177.857 50.9535 177.276 51.0513 176.549 51.0513C175.582 51.0513 174.904 50.8557 174.469 50.4644C174.034 50.073 173.695 49.4371 173.405 48.5566L171.469 42.3443ZM164.936 22.3864C164.598 23.3647 164.211 24.441 163.775 25.6638C163.339 26.8867 162.903 28.1585 162.419 29.5282C161.936 30.8979 161.501 32.2675 161.016 33.6372C160.532 35.0068 160.097 36.3764 159.662 37.6483H170.211C169.726 36.2297 169.292 34.7623 168.808 33.2947C168.324 31.8273 167.839 30.4577 167.404 29.0879C166.969 27.7672 166.533 26.4954 166.146 25.3214C165.759 24.1474 165.42 23.1691 165.178 22.3375H164.936V22.3864Z" fill="white"/>
<path d="M177.491 52.2743C176.234 52.2743 175.265 51.9808 174.589 51.3937C174.008 50.8557 173.524 50.0729 173.185 48.948L171.443 43.5671H160.168L157.652 51.4915L157.168 51.7362C156.78 51.9318 156.345 52.0297 155.909 52.1275C155.474 52.2253 154.99 52.2743 154.409 52.2743C153.297 52.2743 152.28 51.9808 151.554 51.4427C150.926 51.0024 150.151 50.1709 150.151 48.6545C150.151 48.1653 150.199 47.6272 150.345 47.138C150.441 46.7467 150.587 46.3064 150.78 45.8173C151.263 44.3009 151.893 42.3443 152.716 39.9474C153.538 37.5504 154.458 35.0068 155.377 32.3653C156.296 29.7239 157.264 27.0824 158.233 24.4898C159.248 21.8483 160.071 19.6471 160.748 17.8372L160.893 17.4459L161.232 17.2502C161.668 16.9567 162.346 16.7121 163.216 16.5164C164.087 16.2719 164.959 16.1741 165.829 16.1741C166.991 16.1741 168.055 16.3208 169.023 16.6632C170.184 17.0545 171.007 17.8372 171.395 18.8645C172.169 20.9189 173.04 23.2669 173.959 25.9084C174.878 28.501 175.798 31.2402 176.766 34.0285C177.685 36.8167 178.605 39.6049 179.428 42.1975C180.298 44.8879 181.073 47.2847 181.751 49.4371L181.943 50.1219L181.46 50.66C181.024 51.1492 180.492 51.5405 179.814 51.834C179.137 52.0786 178.363 52.2743 177.491 52.2743ZM158.377 41.1213H173.185L175.508 48.1653C175.798 49.0458 176.088 49.4371 176.234 49.5349C176.282 49.5838 176.621 49.7796 177.54 49.7796C178.072 49.7796 178.508 49.6816 178.895 49.5349C179.041 49.486 179.137 49.4371 179.234 49.3393C178.605 47.3826 177.927 45.2303 177.201 42.8823C176.379 40.2897 175.459 37.5504 174.54 34.7133C173.62 31.9251 172.701 29.2346 171.782 26.6421C170.862 24.0495 169.992 21.7016 169.217 19.6471C169.12 19.4026 168.927 19.0601 168.297 18.8645C167.619 18.6198 166.797 18.522 165.926 18.522C165.248 18.522 164.572 18.6198 163.942 18.7666C163.458 18.9133 163.168 19.0111 162.927 19.109C162.249 20.8211 161.523 22.8266 160.603 25.2725C159.636 27.865 158.667 30.5065 157.749 33.0991C156.78 35.7406 155.909 38.2842 155.087 40.6811C154.264 43.0779 153.586 45.0346 153.151 46.5021L153.103 46.5999C152.958 47.0402 152.813 47.4315 152.716 47.774C152.619 48.0185 152.619 48.312 152.619 48.6055C152.619 49.0946 152.764 49.2414 152.958 49.3881C153.345 49.6328 153.828 49.7796 154.458 49.7796C154.893 49.7796 155.232 49.7306 155.523 49.6816C155.618 49.6816 155.715 49.6328 155.812 49.6328L158.377 41.1213ZM172.749 38.9201H158.861L159.394 37.3059C159.829 35.9851 160.265 34.6644 160.748 33.2947C161.232 31.9251 161.668 30.5554 162.152 29.1858C162.636 27.8162 163.071 26.5443 163.507 25.3213C163.942 24.0985 164.329 22.9734 164.668 21.9951L164.959 21.2124H166.943L167.185 22.0929C167.427 22.9245 167.765 23.9029 168.152 25.0768L169.411 28.8433C169.845 30.1641 170.329 31.5827 170.814 33.0501C171.298 34.5177 171.782 35.9851 172.218 37.4037L172.749 38.9201ZM162.2 36.4743H169.411C169.12 35.5448 168.83 34.6644 168.491 33.7349C168.007 32.2675 167.524 30.8979 167.088 29.5281L165.829 25.7616C165.781 25.8595 165.732 25.9573 165.732 26.1041C165.298 27.3269 164.862 28.5988 164.378 29.9684C163.894 31.338 163.458 32.7078 162.974 34.0774C162.733 34.86 162.491 35.6916 162.2 36.4743Z" fill="white"/>
<path d="M196.148 51.296C194.986 51.296 193.922 51.1981 192.954 50.9535C191.938 50.709 191.115 50.4154 190.389 50.073V60.2476C190.147 60.3454 189.809 60.4432 189.325 60.5412C188.889 60.639 188.405 60.6879 187.873 60.6879C186.857 60.6879 186.083 60.4922 185.55 60.1009C185.067 59.7096 184.825 59.0248 184.825 58.0463V30.0662C184.825 29.2836 184.97 28.6478 185.261 28.1585C185.55 27.6694 186.083 27.1802 186.857 26.74C187.873 26.1529 189.083 25.6638 190.534 25.2236C191.987 24.7833 193.632 24.5388 195.422 24.5388C197.261 24.5388 199.003 24.7833 200.6 25.3214C202.197 25.8595 203.6 26.6422 204.761 27.7183C205.923 28.7945 206.842 30.1641 207.52 31.8762C208.198 33.5394 208.536 35.5449 208.536 37.844C208.536 40.0941 208.246 42.0996 207.617 43.7629C206.987 45.426 206.117 46.8446 205.052 47.9697C203.988 49.0947 202.681 49.9752 201.132 50.5132C199.632 51.0025 197.987 51.296 196.148 51.296ZM195.277 46.6979C197.599 46.6979 199.438 45.9641 200.794 44.5455C202.148 43.1269 202.826 40.8768 202.826 37.7462C202.826 36.1809 202.632 34.8112 202.245 33.6861C201.859 32.5611 201.326 31.6805 200.648 30.9468C199.971 30.2619 199.197 29.7239 198.277 29.4304C197.357 29.1369 196.39 28.9901 195.374 28.9901C194.213 28.9901 193.244 29.1369 192.47 29.3814C191.648 29.6749 190.97 29.9684 190.341 30.3109V45.1814C190.97 45.6216 191.648 45.9641 192.47 46.2576C193.341 46.5511 194.261 46.6979 195.277 46.6979Z" fill="white"/>
<path d="M188.718 61.8617C187.412 61.8617 186.395 61.5682 185.669 60.9812C184.847 60.3454 184.46 59.3181 184.46 57.9484V30.0662C184.46 29.039 184.653 28.2074 185.041 27.5226C185.428 26.8377 186.105 26.2508 187.073 25.6638C188.137 25.0278 189.492 24.4897 190.992 24.0006C192.54 23.5114 194.331 23.2668 196.219 23.2668C198.202 23.2668 200.041 23.5604 201.784 24.0984C203.526 24.6854 205.122 25.566 206.381 26.7399C207.687 27.9628 208.704 29.4793 209.477 31.338C210.203 33.1479 210.591 35.3002 210.591 37.7949C210.591 40.1919 210.252 42.3442 209.574 44.1541C208.897 45.964 207.929 47.5293 206.767 48.8011C205.558 50.0729 204.107 51.0024 202.412 51.6382C200.767 52.2253 198.929 52.5677 196.993 52.5677C195.783 52.5677 194.574 52.421 193.508 52.1763C193.121 52.0785 192.782 51.9807 192.443 51.8828V61.0791L191.718 61.3726C191.379 61.5194 190.992 61.6172 190.46 61.764C189.88 61.8128 189.299 61.8617 188.718 61.8617ZM196.267 25.7127C194.574 25.7127 193.073 25.9083 191.718 26.3486C190.363 26.7888 189.202 27.2779 188.282 27.7672C187.508 28.2074 187.218 28.5987 187.121 28.7455C186.928 29.039 186.879 29.4793 186.879 30.0173V57.9484C186.879 58.4865 186.976 58.8778 187.17 59.0246C187.315 59.1713 187.751 59.367 188.718 59.367C189.153 59.367 189.589 59.3181 189.976 59.2692H190.025V48.0674L191.767 48.9478C192.396 49.2413 193.17 49.5348 194.089 49.7306C195.008 49.9261 195.976 50.0729 197.042 50.0729C198.686 50.0729 200.235 49.8283 201.639 49.2903C202.993 48.8011 204.155 48.0674 205.074 47.0401C206.042 46.0128 206.816 44.741 207.397 43.2246C207.977 41.7082 208.268 39.8494 208.268 37.7461C208.268 35.5938 207.977 33.7349 207.348 32.2185C206.72 30.7021 205.897 29.4793 204.88 28.5498C203.816 27.5714 202.606 26.8866 201.154 26.3975C199.605 25.9573 197.96 25.7127 196.267 25.7127ZM196.122 47.9207C194.96 47.9207 193.896 47.7739 192.976 47.4314C192.057 47.1379 191.234 46.6978 190.508 46.2086L189.976 45.8661V29.6748L190.556 29.3325C191.234 28.9411 192.009 28.5987 192.879 28.3052C193.799 28.0117 194.911 27.816 196.17 27.816C197.331 27.816 198.444 28.0117 199.461 28.3542C200.574 28.7455 201.493 29.3325 202.315 30.1641C203.09 30.9956 203.719 32.0718 204.155 33.3436C204.59 34.5665 204.832 36.0829 204.832 37.7949C204.832 41.2191 204.058 43.7627 202.461 45.4259C200.961 47.0891 198.783 47.9207 196.122 47.9207ZM192.443 44.5944C192.831 44.79 193.266 44.9857 193.751 45.1813C194.428 45.4259 195.25 45.5237 196.17 45.5237C198.154 45.5237 199.702 44.9367 200.816 43.7628C201.929 42.5888 202.509 40.5832 202.509 37.8439C202.509 36.4253 202.315 35.2024 201.976 34.1752C201.639 33.2458 201.203 32.4631 200.67 31.876C200.138 31.338 199.558 30.9467 198.832 30.7021C198.057 30.4576 197.187 30.3108 196.315 30.3108C195.299 30.3108 194.477 30.4086 193.799 30.6532C193.315 30.7999 192.928 30.9956 192.493 31.1912V44.5944H192.443Z" fill="white"/>
<path d="M225.958 51.296C224.796 51.296 223.732 51.1981 222.763 50.9535C221.747 50.709 220.925 50.4154 220.199 50.073V60.2476C219.957 60.3454 219.618 60.4432 219.135 60.5412C218.699 60.639 218.215 60.6879 217.682 60.6879C216.667 60.6879 215.892 60.4922 215.36 60.1009C214.875 59.7096 214.633 59.0248 214.633 58.0463V30.0662C214.633 29.2836 214.779 28.6478 215.069 28.1585C215.36 27.6694 215.892 27.1802 216.667 26.74C217.682 26.1529 218.893 25.6638 220.344 25.2236C221.795 24.7833 223.441 24.5388 225.231 24.5388C227.07 24.5388 228.812 24.7833 230.409 25.3214C232.006 25.8595 233.409 26.6422 234.571 27.7183C235.732 28.7945 236.652 30.1641 237.329 31.8762C238.006 33.5394 238.345 35.5449 238.345 37.844C238.345 40.0941 238.054 42.0996 237.426 43.7629C236.797 45.426 235.925 46.8446 234.861 47.9697C233.796 49.0947 232.49 49.9752 230.941 50.5132C229.441 51.0025 227.748 51.296 225.958 51.296ZM225.086 46.6979C227.409 46.6979 229.248 45.9641 230.603 44.5455C231.958 43.1269 232.635 40.8768 232.635 37.7462C232.635 36.1809 232.442 34.8112 232.054 33.6861C231.667 32.5611 231.135 31.6805 230.458 30.9468C229.78 30.2619 229.006 29.7239 228.087 29.4304C227.167 29.1369 226.2 28.9901 225.183 28.9901C224.021 28.9901 223.054 29.1369 222.279 29.3814C221.456 29.6749 220.78 29.9684 220.15 30.3109V45.1814C220.78 45.6216 221.456 45.9641 222.279 46.2576C223.102 46.5511 224.07 46.6979 225.086 46.6979Z" fill="white"/>
<path d="M218.479 61.8617C217.172 61.8617 216.156 61.5682 215.43 60.9812C214.607 60.3454 214.221 59.3181 214.221 57.9484V30.0662C214.221 29.039 214.414 28.2074 214.801 27.5226C215.188 26.8377 215.866 26.2508 216.834 25.6638C217.898 25.0278 219.252 24.4897 220.753 24.0006C222.301 23.5114 224.091 23.2668 225.98 23.2668C227.963 23.2668 229.802 23.5604 231.544 24.0984C233.287 24.6854 234.883 25.566 236.141 26.7399C237.448 27.9628 238.464 29.4793 239.238 31.338C239.964 33.1479 240.352 35.3002 240.352 37.7949C240.352 40.1919 240.013 42.3442 239.335 44.1541C238.657 45.964 237.69 47.5293 236.528 48.8011C235.319 50.0729 233.867 51.0024 232.173 51.6382C230.528 52.2253 228.69 52.5677 226.753 52.5677C225.544 52.5677 224.334 52.421 223.269 52.1763C222.882 52.0785 222.543 51.9807 222.204 51.8828V61.0791L221.479 61.3726C221.14 61.5194 220.753 61.6172 220.221 61.764C219.688 61.8128 219.108 61.8617 218.479 61.8617ZM226.028 25.7127C224.334 25.7127 222.834 25.9083 221.479 26.3486C220.124 26.7888 218.963 27.2779 218.043 27.7672C217.268 28.2074 216.978 28.5987 216.881 28.7455C216.689 29.039 216.64 29.4793 216.64 30.0173V57.9484C216.64 58.4865 216.737 58.8778 216.931 59.0246C217.075 59.1713 217.511 59.367 218.479 59.367C218.914 59.367 219.349 59.3181 219.736 59.2692H219.785V48.0674L221.528 48.9478C222.156 49.2413 222.931 49.5348 223.85 49.7306C224.769 49.9261 225.737 50.0729 226.802 50.0729C228.448 50.0729 229.996 49.8283 231.399 49.2903C232.754 48.8011 233.915 48.0674 234.835 47.0401C235.803 46.0128 236.577 44.741 237.158 43.2246C237.738 41.7082 238.029 39.8494 238.029 37.7461C238.029 35.5938 237.738 33.7349 237.109 32.2185C236.48 30.7021 235.658 29.4793 234.641 28.5498C233.576 27.5714 232.367 26.8866 230.915 26.3975C229.366 25.9573 227.77 25.7127 226.028 25.7127ZM225.931 47.9207C224.769 47.9207 223.705 47.7739 222.785 47.4314C221.866 47.1379 221.044 46.6978 220.317 46.2086L219.785 45.8661V29.6748L220.366 29.3325C221.044 28.9411 221.817 28.5987 222.689 28.3052C223.608 28.0117 224.721 27.816 225.98 27.816C227.14 27.816 228.254 28.0117 229.269 28.3542C230.383 28.7455 231.302 29.3325 232.125 30.1641C232.899 30.9956 233.529 32.0718 233.963 33.3436C234.399 34.5665 234.641 36.0829 234.641 37.7949C234.641 41.2191 233.867 43.7627 232.27 45.4259C230.722 47.0891 228.593 47.9207 225.931 47.9207ZM222.204 44.5944C222.592 44.79 223.027 44.9857 223.512 45.1813C224.188 45.4259 225.011 45.5237 225.931 45.5237C227.915 45.5237 229.463 44.9367 230.577 43.7628C231.689 42.5888 232.27 40.5832 232.27 37.8439C232.27 36.4253 232.076 35.2024 231.737 34.1752C231.399 33.2458 230.964 32.4631 230.431 31.876C229.899 31.338 229.318 30.9467 228.593 30.7021C227.818 30.4576 226.947 30.3108 226.076 30.3108C225.06 30.3108 224.237 30.4086 223.56 30.6532C223.076 30.7999 222.689 30.9956 222.253 31.1912V44.5944H222.204Z" fill="white"/>
<path d="M263.073 43.5671C263.073 45.9639 262.202 47.8717 260.411 49.2414C258.621 50.611 256.056 51.2958 252.669 51.2958C251.266 51.2958 250.007 51.198 248.798 50.9534C247.636 50.7577 246.62 50.4154 245.797 50.024C244.974 49.6327 244.298 49.1436 243.862 48.6055C243.378 48.0673 243.184 47.4804 243.184 46.8444C243.184 46.3064 243.329 45.8173 243.571 45.3281C243.862 44.839 244.201 44.4965 244.684 44.203C245.7 44.8388 246.814 45.4259 248.12 45.9639C249.426 46.5021 250.878 46.7956 252.62 46.7956C254.217 46.7956 255.476 46.5021 256.299 45.9639C257.169 45.4259 257.605 44.5943 257.605 43.5671C257.605 42.6866 257.314 41.9528 256.733 41.4148C256.153 40.8767 255.282 40.4364 254.12 40.1919L250.491 39.2136C248.072 38.5776 246.281 37.6972 245.12 36.5721C243.959 35.447 243.426 33.9305 243.426 31.9739C243.426 30.9467 243.62 29.9684 244.055 29.0389C244.491 28.1095 245.12 27.3269 245.943 26.6421C246.765 25.9572 247.83 25.4681 249.088 25.0768C250.346 24.6855 251.749 24.4897 253.346 24.4897C254.653 24.4897 255.814 24.5875 256.83 24.7833C257.895 24.9788 258.814 25.2724 259.54 25.6148C260.315 25.9572 260.896 26.3974 261.33 26.8867C261.766 27.3758 261.96 27.9138 261.96 28.5008C261.96 29.0879 261.814 29.5771 261.572 29.9684C261.33 30.3597 260.991 30.7022 260.605 30.9467C259.976 30.5554 259.008 30.1151 257.75 29.6259C256.491 29.1368 255.137 28.9411 253.637 28.9411C252.136 28.9411 250.975 29.1857 250.104 29.7238C249.232 30.2619 248.798 30.9955 248.798 31.925C248.798 32.6588 249.04 33.2457 249.523 33.686C250.007 34.1752 250.83 34.5175 251.991 34.811L255.088 35.6426C257.798 36.3764 259.782 37.3547 261.088 38.5776C262.395 39.8005 263.073 41.4637 263.073 43.5671Z" fill="white"/>
<path d="M253.465 52.5188C252.014 52.5188 250.659 52.421 249.401 52.1763C248.142 51.9318 247.03 51.5894 246.061 51.1491C245.094 50.6599 244.271 50.1219 243.69 49.437C243.014 48.6544 242.723 47.8229 242.723 46.8445C242.723 46.1108 242.917 45.377 243.303 44.7411C243.69 44.1052 244.174 43.5671 244.804 43.1758L245.433 42.7845L246.061 43.2246C246.981 43.8116 248.094 44.3987 249.304 44.8878C250.416 45.377 251.772 45.6215 253.32 45.6215C254.676 45.6215 255.691 45.4259 256.369 44.9857C256.902 44.6432 257.095 44.2519 257.095 43.6161C257.095 42.8823 256.805 42.5398 256.611 42.3442C256.175 41.9528 255.498 41.6104 254.53 41.3659L250.901 40.3876C248.239 39.6538 246.303 38.7244 244.997 37.4526C243.593 36.0829 242.917 34.273 242.917 31.974C242.917 30.7511 243.159 29.5771 243.69 28.5009C244.174 27.4247 244.949 26.4464 245.916 25.6638C246.884 24.881 248.045 24.2941 249.449 23.9027C250.804 23.5114 252.353 23.2668 254.095 23.2668C255.449 23.2668 256.708 23.3646 257.82 23.5604C258.982 23.7559 259.949 24.0984 260.821 24.4409C261.741 24.881 262.514 25.3702 263.047 26.0551C263.676 26.7888 263.967 27.6204 263.967 28.452C263.967 29.2346 263.773 29.9684 263.434 30.5554C263.095 31.1424 262.611 31.5827 262.08 31.974L261.45 32.3653L260.821 31.974C260.24 31.6315 259.37 31.2402 258.159 30.7999C257.047 30.3597 255.788 30.1641 254.482 30.1641C253.223 30.1641 252.256 30.3597 251.578 30.7511C250.949 31.1424 250.901 31.5337 250.901 31.8761C250.901 32.2675 250.997 32.561 251.239 32.7566C251.433 32.9523 251.917 33.2946 253.175 33.5881L256.272 34.4197C259.224 35.2024 261.353 36.2296 262.805 37.6482C264.354 39.1157 265.127 41.0724 265.127 43.5181C265.127 46.3064 264.063 48.5565 261.983 50.1708C259.949 51.7362 257.095 52.5188 253.465 52.5188ZM245.577 45.7195C245.529 45.8173 245.48 45.8662 245.433 45.964C245.288 46.2575 245.191 46.551 245.191 46.8445C245.191 47.1869 245.336 47.5294 245.577 47.8229C245.916 48.2142 246.449 48.6055 247.126 48.899C247.853 49.2413 248.771 49.5348 249.837 49.7306C250.949 49.9263 252.159 50.0241 253.465 50.0241C256.563 50.0241 258.934 49.437 260.482 48.2142C261.983 47.0891 262.66 45.5237 262.66 43.5181C262.66 41.7572 262.175 40.4364 261.111 39.4581C259.998 38.382 258.159 37.5014 255.643 36.8166L252.547 35.9851C251.143 35.6427 250.174 35.1535 249.546 34.5665C248.82 33.8817 248.433 32.9523 248.433 31.925C248.433 30.5554 249.062 29.4303 250.32 28.6965C251.385 28.0607 252.739 27.7182 254.482 27.7182C256.079 27.7182 257.578 27.9628 258.982 28.5009C259.901 28.8433 260.627 29.1368 261.257 29.4793C261.305 29.4303 261.305 29.3813 261.353 29.3325C261.499 29.0878 261.547 28.8433 261.547 28.5009C261.547 28.3052 261.499 28.0607 261.208 27.6694C260.918 27.3269 260.434 26.9844 259.853 26.7399C259.176 26.4464 258.353 26.2018 257.386 26.0061C256.417 25.8105 255.304 25.7127 254.095 25.7127C252.594 25.7127 251.288 25.9083 250.174 26.2508C249.062 26.5931 248.142 27.0334 247.465 27.6204C246.788 28.1585 246.255 28.7943 245.916 29.5771C245.577 30.3597 245.385 31.1424 245.385 32.0228C245.385 33.6371 245.819 34.86 246.739 35.7405C247.707 36.7188 249.352 37.5014 251.578 38.0885L255.207 39.0668C256.563 39.4093 257.578 39.8984 258.304 40.5832C259.127 41.3659 259.563 42.3931 259.563 43.6649C259.563 45.1324 258.934 46.3064 257.724 47.0891C256.659 47.7739 255.256 48.1163 253.369 48.1163C251.481 48.1163 249.837 47.8229 248.433 47.2358C247.369 46.6978 246.449 46.2086 245.577 45.7195Z" fill="white"/>
<rect x="6" y="3" width="62" height="62" rx="15.19" fill="#D9D9D9"/>
<rect x="6" y="3" width="62" height="62" rx="15.19" fill="#111E2D"/>
<rect x="6.39792" y="3.39792" width="61.2042" height="61.2042" rx="14.7921" stroke="white" stroke-opacity="0.2" stroke-width="0.795833"/>
<path d="M27 20.1903C27 18.9784 27.9816 18 29.1903 18H42.821C46.7539 18 49.945 21.1879 49.945 25.124C49.945 29.0601 46.7571 32.2479 42.821 32.2479H29.1903C27.9784 32.2479 27 31.2663 27 30.0577V20.1967V20.1903Z" fill="#FF4655"/>
<path d="M27 37.9424C27 36.7305 27.9816 35.7521 29.1903 35.7521H42.821C46.7539 35.7521 49.945 38.94 49.945 42.8761C49.945 46.8122 46.7571 50 42.821 50H29.1903C27.9784 50 27 49.0184 27 47.8098V37.9488V37.9424Z" fill="#FF4655"/>
</svg>
