<svg width="142" height="30" viewBox="0 0 142 30" fill="none" xmlns="http://www.w3.org/2000/svg">
<path d="M44.3719 12.8739C45.3534 12.4894 46.034 11.9103 46.443 11.1659C46.852 10.4216 47.0696 9.62323 47.0696 8.74308C47.0696 7.03513 46.443 5.76889 45.1898 4.94272C43.9367 4.14437 42.1649 3.73047 39.904 3.73047C39.0043 3.73047 38.1601 3.75828 37.3977 3.84008C36.6354 3.92188 35.8992 4.06093 35.2186 4.25234C34.5643 4.44539 34.2371 4.83148 34.2371 5.40897V20.9981C34.2371 21.6869 34.6461 22.1548 35.4902 22.4034C36.1986 22.5965 36.9609 22.7339 37.7511 22.8157C38.5413 22.8991 39.3593 22.9253 40.2034 22.9253C42.6279 22.9253 44.5093 22.4574 45.8164 21.5756C47.1236 20.6938 47.7779 19.3164 47.7779 17.471C47.7779 16.4518 47.5047 15.516 46.9338 14.6898C46.3612 13.8637 45.517 13.2567 44.3719 12.8723V12.8739ZM36.6616 6.06991C37.0967 5.98811 37.5613 5.93248 38.0783 5.87686C38.5953 5.82124 39.1957 5.79343 39.904 5.79343C43.0369 5.79343 44.5911 6.78482 44.5911 8.79543C44.5911 9.75902 44.2639 10.5312 43.6095 11.1087C42.9551 11.6878 41.9752 11.9627 40.722 11.9627H36.6616V6.06827V6.06991ZM43.9907 20.0624C43.1465 20.6137 41.8656 20.8885 40.2034 20.8885C39.5768 20.8885 38.9225 20.8607 38.2959 20.8051C37.6693 20.7495 37.1245 20.6677 36.6337 20.5581V13.9749H40.7204C42.2189 13.9749 43.3641 14.3054 44.1265 14.9107C44.9166 15.516 45.2978 16.37 45.2978 17.417C45.2978 18.6292 44.8627 19.5094 43.989 20.0607L43.9907 20.0624Z" fill="#EF4438"/>
<path d="M54.3727 9.48624C54.3727 8.74187 53.9637 8.35742 53.1195 8.35742C52.8741 8.35742 52.6566 8.38523 52.4373 8.43922C52.2198 8.49484 52.0823 8.54883 51.9744 8.57664V21.6317C51.9744 22.376 52.4095 22.7327 53.2815 22.7327C53.5269 22.7327 53.7445 22.7049 53.9359 22.6509C54.1535 22.5953 54.2909 22.5413 54.3989 22.5135H54.3711V9.48624H54.3727Z" fill="#EF4438"/>
<path d="M53.1734 2.57227C52.7104 2.57227 52.3554 2.70969 52.056 3.01234C51.7566 3.28718 51.6208 3.67327 51.6208 4.08717C51.6208 4.50107 51.7566 4.85772 52.056 5.16201C52.3292 5.46466 52.7104 5.60208 53.1734 5.60208C53.6364 5.60208 54.0175 5.46466 54.2907 5.16201C54.5623 4.88716 54.6997 4.50107 54.6997 4.08717C54.6997 3.67327 54.564 3.315 54.2907 3.01234C54.0175 2.70969 53.6364 2.57227 53.1734 2.57227Z" fill="#EF4438"/>
<path d="M66.6606 20.8055C66.551 20.6124 66.443 20.4472 66.3334 20.3376C66.034 20.475 65.679 20.6402 65.27 20.7515C64.861 20.8889 64.4798 20.9445 64.1265 20.9445C63.3101 20.9445 62.6819 20.7793 62.2189 20.4488C61.756 20.1184 61.5384 19.5392 61.5384 18.7409V10.8359H65.8442C66.443 10.8359 66.7424 10.4776 66.7424 9.78886C66.7424 9.59581 66.7146 9.40277 66.6606 9.23754C66.5788 9.0723 66.5248 8.93488 66.4692 8.82527H61.5367V5.32757C61.5367 4.5832 61.1278 4.22656 60.2836 4.22656C60.0382 4.22656 59.8206 4.25437 59.6014 4.30836C59.3838 4.36398 59.248 4.41797 59.1384 4.44578V18.9061C59.1384 20.3654 59.5736 21.4124 60.4456 22.0455C61.3175 22.6787 62.4349 22.9813 63.8516 22.9813C64.7776 22.9813 65.486 22.8439 66.0307 22.5412C66.5493 22.2386 66.8209 21.8803 66.8209 21.4402C66.8209 21.1916 66.7669 21.0002 66.6573 20.8071L66.6606 20.8055Z" fill="#EF4438"/>
<path d="M90.1939 17.8878C89.731 16.4285 89.2124 14.8579 88.6954 13.2874C88.1506 11.7169 87.632 10.1742 87.1151 8.71487C86.5981 7.22778 86.1073 5.90591 85.6721 4.74928C85.4529 4.17015 84.9899 3.73007 84.3372 3.50922C83.7924 3.31617 83.1936 3.23438 82.5393 3.23438C82.0485 3.23438 81.5577 3.29 81.0685 3.42742C80.5777 3.53703 80.1966 3.67609 79.9512 3.83968L79.7598 3.94929L79.678 4.17015C79.2968 5.18936 78.8322 6.42942 78.2612 7.91652C77.7164 9.37581 77.1717 10.8629 76.6531 12.3516C76.1361 13.8387 75.6175 15.2702 75.1545 16.6215C74.6915 17.9712 74.3365 19.0722 74.0633 19.9262C73.9554 20.201 73.8736 20.4497 73.8196 20.6705C73.7378 20.9454 73.71 21.2497 73.71 21.5245C73.71 22.3785 74.1468 22.8464 74.5001 23.095C74.9091 23.3977 75.4817 23.5629 76.1083 23.5629C76.4355 23.5629 76.7071 23.5351 76.9541 23.4795C77.1995 23.4255 77.4449 23.3699 77.6625 23.2586L77.934 23.1212L79.3508 18.6583H85.6999L86.6815 21.6881C86.8729 22.3212 87.1445 22.7629 87.4717 23.0656C87.8529 23.3961 88.3977 23.5613 89.106 23.5613C89.5968 23.5613 90.032 23.4517 90.4132 23.3126C90.7943 23.1474 91.0937 22.9265 91.3391 22.6517L91.6123 22.349L91.5043 21.9646C91.1232 20.7523 90.6864 19.4027 90.1956 17.8878H90.1939ZM84.5531 14.6649H80.4927C80.6563 14.2248 80.7937 13.7569 80.9295 13.3152C81.201 12.5447 81.4481 11.7725 81.7196 11.002C81.9929 10.2314 82.2366 9.51486 82.482 8.82612C82.482 8.74432 82.5098 8.6887 82.536 8.63308L83.2444 10.7533C83.4898 11.5238 83.763 12.296 84.0345 13.1222C84.2259 13.6457 84.3879 14.1414 84.5531 14.6649Z" fill="#121E2C"/>
<path d="M105.371 9.18545C104.663 8.52452 103.763 8.02882 102.783 7.69836C101.801 7.3957 100.766 7.23047 99.65 7.23047C98.5343 7.23047 97.5789 7.36789 96.707 7.64273C95.8612 7.91758 95.0988 8.22187 94.5 8.57851C93.9553 8.90897 93.5741 9.23944 93.3565 9.62553C93.1389 10.0116 93.0293 10.4795 93.0293 11.057V26.7574C93.0293 27.5296 93.2469 28.1071 93.7099 28.4654C94.1189 28.7958 94.6914 28.9611 95.426 28.9611C95.7532 28.9611 96.0804 28.9332 96.4076 28.9071C96.7069 28.8236 96.9245 28.7696 97.1159 28.6862L97.5249 28.521V23.3431C97.7163 23.3988 97.9061 23.4527 98.1237 23.5084C98.7241 23.6458 99.4047 23.7292 100.085 23.7292C101.176 23.7292 102.21 23.5362 103.138 23.2057C104.092 22.8474 104.91 22.3239 105.59 21.6074C106.245 20.8908 106.789 20.009 107.171 18.9915C107.552 17.9722 107.743 16.76 107.743 15.4103C107.743 14.0606 107.524 12.7944 107.117 11.7752C106.681 10.7282 106.109 9.8742 105.373 9.18545H105.371ZM103.192 15.4381C103.192 16.9808 102.865 18.1097 102.238 18.7706C101.612 19.4315 100.74 19.762 99.6222 19.762C99.1036 19.762 98.6407 19.7064 98.2595 19.569C97.9863 19.4593 97.7425 19.3481 97.5233 19.2385H97.5511V11.6918C97.7965 11.5821 98.0141 11.4709 98.2873 11.3891C98.6685 11.2517 99.1314 11.1961 99.704 11.1961C100.195 11.1961 100.684 11.2795 101.121 11.4169C101.53 11.5543 101.857 11.7752 102.156 12.0778C102.457 12.4083 102.703 12.85 102.893 13.3719C103.084 13.951 103.194 14.6381 103.194 15.4381H103.192Z" fill="#121E2C"/>
<path d="M122.128 9.18545C121.42 8.52452 120.52 8.02882 119.54 7.69836C118.558 7.3957 117.523 7.23047 116.407 7.23047C115.291 7.23047 114.336 7.36789 113.464 7.64273C112.618 7.91758 111.856 8.22187 111.257 8.57851C110.712 8.90897 110.331 9.23944 110.114 9.62553C109.896 10.0116 109.786 10.4795 109.786 11.057V26.7574C109.786 27.5296 110.004 28.1071 110.467 28.4654C110.876 28.7958 111.449 28.9611 112.183 28.9611C112.536 28.9611 112.864 28.9332 113.165 28.9071C113.464 28.8236 113.682 28.7696 113.873 28.6862L114.282 28.521V23.3431C114.473 23.3988 114.663 23.4527 114.881 23.5084C115.481 23.6458 116.162 23.7292 116.842 23.7292C117.933 23.7292 118.967 23.5362 119.895 23.2057C120.849 22.8474 121.667 22.3239 122.347 21.6074C123.002 20.8908 123.546 20.009 123.928 18.9915C124.309 17.9722 124.5 16.76 124.5 15.4103C124.5 14.0606 124.281 12.7944 123.874 11.7752C123.439 10.7282 122.866 9.8742 122.13 9.18545H122.128ZM119.949 15.4381C119.949 16.9808 119.622 18.1097 118.995 18.7706C118.369 19.4315 117.497 19.762 116.379 19.762C115.862 19.762 115.399 19.7064 115.018 19.569C114.745 19.4593 114.5 19.3481 114.282 19.2385H114.31V11.6918C114.555 11.5821 114.773 11.4709 115.046 11.3891C115.427 11.2517 115.89 11.1961 116.463 11.1961C116.954 11.1961 117.443 11.2795 117.879 11.4169C118.288 11.5543 118.616 11.7752 118.915 12.0778C119.216 12.4083 119.46 12.85 119.651 13.3719C119.843 13.951 119.952 14.6381 119.952 15.4381H119.949Z" fill="#121E2C"/>
<path d="M137.141 15.3292C136.323 14.5308 135.124 13.9517 133.462 13.5116L131.718 13.0437C131.01 12.8785 130.738 12.6854 130.628 12.5758C130.493 12.4662 130.439 12.301 130.439 12.0801C130.439 11.8871 130.466 11.6679 130.82 11.447C131.201 11.2261 131.746 11.1165 132.454 11.1165C133.162 11.1165 133.899 11.2261 134.525 11.4748C135.207 11.7235 135.697 11.9427 136.024 12.1357L136.377 12.3566L136.732 12.1357C137.031 11.9149 137.305 11.6679 137.494 11.3374C137.686 11.0069 137.795 10.593 137.795 10.1529C137.795 9.68506 137.632 9.21717 137.277 8.80327C136.978 8.41882 136.541 8.14234 136.024 7.89531C135.533 7.70226 134.988 7.50922 134.334 7.39961C133.707 7.29 132.999 7.23438 132.236 7.23438C131.255 7.23438 130.383 7.3718 129.621 7.59265C128.83 7.81351 128.176 8.14397 127.631 8.58405C127.086 9.02413 126.651 9.57545 126.378 10.1824C126.079 10.7877 125.943 11.4486 125.943 12.1374C125.943 13.4314 126.324 14.4506 127.114 15.2228C127.849 15.9394 128.94 16.4612 130.439 16.8751L132.482 17.4265C133.027 17.5639 133.408 17.7569 133.653 17.9778C133.763 18.0874 133.926 18.2804 133.926 18.6943C133.926 19.0526 133.818 19.2718 133.517 19.4649C133.136 19.7136 132.564 19.8232 131.801 19.8232C130.929 19.8232 130.167 19.6857 129.54 19.4109C128.86 19.1361 128.232 18.8056 127.715 18.4751L127.361 18.2281L127.008 18.4489C126.653 18.6698 126.381 18.9725 126.162 19.3307C125.945 19.689 125.835 20.1029 125.835 20.5152C125.835 21.0665 125.999 21.5344 126.38 21.9745C126.707 22.3589 127.17 22.6632 127.715 22.938C128.261 23.1867 128.886 23.3781 129.596 23.5172C130.304 23.6546 131.067 23.7102 131.885 23.7102C133.928 23.7102 135.536 23.2702 136.68 22.3884C137.851 21.4788 138.452 20.2125 138.452 18.642C138.452 17.2645 138.016 16.1635 137.144 15.3373L137.141 15.3292Z" fill="#121E2C"/>
<path d="M20.7694 0H9.69834C5.37722 0 1.87427 3.50297 1.87427 7.8241V18.8952C1.87427 23.2164 5.37722 26.7193 9.69834 26.7193H20.7694C25.0906 26.7193 28.5935 23.2164 28.5935 18.8952V7.8241C28.5935 3.50297 25.0906 0 20.7694 0Z" fill="#121E2C"/>
<path d="M9.69834 0.414665H20.7694C24.8615 0.414665 28.1788 3.73198 28.1788 7.8241V18.8952C28.1788 22.9874 24.8615 26.3047 20.7694 26.3047H9.69834C5.60624 26.3047 2.28893 22.9874 2.28893 18.8952V7.8241C2.28893 3.73198 5.60624 0.414665 9.69834 0.414665Z" stroke="white" stroke-opacity="0.2" stroke-width="0.829329"/>
<path d="M9.65991 6.58744C9.65991 5.9674 10.1622 5.4668 10.7805 5.4668H17.7547C19.7669 5.4668 21.3996 7.09786 21.3996 9.11174C21.3996 11.1256 19.7685 12.7567 17.7547 12.7567H10.7805C10.1605 12.7567 9.65991 12.2544 9.65991 11.636V6.59071V6.58744Z" fill="#EF4438"/>
<path d="M9.65991 15.6714C9.65991 15.0514 10.1622 14.5508 10.7805 14.5508H17.7547C19.7669 14.5508 21.3996 16.1818 21.3996 18.1957C21.3996 20.2096 19.7685 21.8407 17.7547 21.8407H10.7805C10.1605 21.8407 9.65991 21.3384 9.65991 20.72V15.6747V15.6714Z" fill="#EF4438"/>
</svg>
