<svg width="139" height="48" viewBox="0 0 139 48" fill="none" xmlns="http://www.w3.org/2000/svg">
<g clip-path="url(#clip0_1759_4096)">
<path fill-rule="evenodd" clip-rule="evenodd" d="M15.5219 6.95117L17.979 11.2215L16.957 13.0075H9.77905L13.3689 19.2165H22.5909C25.5278 13.2255 30.3339 7.38731 36.4028 6.95117H15.5219Z" fill="url(#paint0_linear_1759_4096)"/>
<path fill-rule="evenodd" clip-rule="evenodd" d="M45.6688 17.1908V12.0703H36.8773C31.7654 12.0703 27.5903 16.2542 27.5903 21.3738V47.2571H32.7022V21.8311C32.7088 20.5999 33.1994 19.4212 34.0673 18.552C34.9351 17.6828 36.1098 17.1935 37.3352 17.1908H45.6688Z" fill="#6601E0"/>
<path fill-rule="evenodd" clip-rule="evenodd" d="M52.8686 9.5218L45.6687 3.92188V6.95095H36.4028C28.7469 6.95095 22.4829 13.2253 22.4829 20.8946V47.2573H27.5948V21.374C27.5948 16.2544 31.7699 12.0706 36.8818 12.0706H45.6733V15.0987L52.8686 9.5218Z" fill="url(#paint1_linear_1759_4096)"/>
<path fill-rule="evenodd" clip-rule="evenodd" d="M17.9787 11.2207L13.3677 19.2157H22.5896L17.9787 11.2207Z" fill="url(#paint2_linear_1759_4096)"/>
<path fill-rule="evenodd" clip-rule="evenodd" d="M13.368 19.2169L9.77905 13.0078H16.957L13.368 19.2169Z" fill="url(#paint3_linear_1759_4096)"/>
<path fill-rule="evenodd" clip-rule="evenodd" d="M12.8026 11.6566L10.1047 6.94922H15.5207L12.8026 11.6566Z" fill="url(#paint4_linear_1759_4096)"/>
<path fill-rule="evenodd" clip-rule="evenodd" d="M10.1491 10.4155H4.73315L7.4512 5.70898L10.1491 10.4155Z" fill="url(#paint5_linear_1759_4096)"/>
<path fill-rule="evenodd" clip-rule="evenodd" d="M11.8452 0L9.14819 4.68439H14.5641L11.8452 0Z" fill="url(#paint6_linear_1759_4096)"/>
<path fill-rule="evenodd" clip-rule="evenodd" d="M29.2258 6.95117C27.2815 7.96491 25.568 9.37338 24.1938 11.0873C22.8196 12.8013 21.8148 14.7833 21.2429 16.9079L22.5919 19.2165C23.4161 12.3321 29.3128 6.95117 36.4037 6.95117H29.2258Z" fill="url(#paint7_linear_1759_4096)"/>
</g>
<path d="M54.876 43.0862C55.4198 43.0862 55.9335 43.0257 56.4169 42.9049C56.9124 42.784 57.414 42.633 57.9216 42.4517V46.5669C57.4019 46.8328 56.7553 47.0503 55.9818 47.2196C55.2204 47.4008 54.3865 47.4915 53.4801 47.4915C52.5978 47.4915 51.7759 47.3888 51.0145 47.1833C50.2531 46.9778 49.5944 46.6213 49.0385 46.1137C48.4825 45.594 48.0414 44.9051 47.7151 44.047C47.4009 43.1768 47.2437 42.0891 47.2437 40.7838V31.0124H44.5969V28.6738L47.6426 26.8246L49.2379 22.5462H52.773V26.8609H57.7041V31.0124H52.773V40.7838C52.773 41.5694 52.9664 42.1495 53.3532 42.5242C53.7399 42.8988 54.2475 43.0862 54.876 43.0862ZM66.6235 36.9586C66.6235 38.977 66.9075 40.4998 67.4755 41.5271C68.0436 42.5423 68.9681 43.0499 70.2492 43.0499C71.5182 43.0499 72.4368 42.5363 73.0048 41.509C73.5728 40.4817 73.8569 38.9649 73.8569 36.9586C73.8569 34.9403 73.5728 33.4356 73.0048 32.4446C72.4368 31.4414 71.5062 30.9399 70.213 30.9399C68.944 30.9399 68.0254 31.4414 67.4574 32.4446C66.9014 33.4356 66.6235 34.9403 66.6235 36.9586ZM79.4949 36.9586C79.4949 38.6507 79.2774 40.1493 78.8423 41.4546C78.4193 42.7599 77.8029 43.8597 76.9932 44.754C76.1955 45.6484 75.2165 46.3312 74.0563 46.8026C72.9081 47.2619 71.6149 47.4915 70.1767 47.4915C68.8352 47.4915 67.6024 47.2619 66.4784 46.8026C65.3544 46.3312 64.3815 45.6484 63.5597 44.754C62.7499 43.8597 62.1154 42.7599 61.6562 41.4546C61.1969 40.1493 60.9673 38.6507 60.9673 36.9586C60.9673 35.2787 61.1788 33.7861 61.6018 32.4808C62.0369 31.1755 62.6532 30.0818 63.4509 29.1995C64.2607 28.3051 65.2396 27.6283 66.3878 27.1691C67.5359 26.7098 68.8352 26.4802 70.2855 26.4802C71.627 26.4802 72.8598 26.7098 73.9838 27.1691C75.1078 27.6283 76.0746 28.3051 76.8844 29.1995C77.7062 30.0818 78.3468 31.1755 78.806 32.4808C79.2653 33.7861 79.4949 35.2787 79.4949 36.9586Z" fill="black"/>
<path d="M109.408 47.1289H103.026L99.763 34.058C99.7146 33.8767 99.6542 33.6229 99.5817 33.2966C99.5212 32.9703 99.4487 32.6017 99.3641 32.1907C99.2795 31.7798 99.1949 31.3508 99.1103 30.9036C99.0257 30.4564 98.9472 30.0213 98.8747 29.5983C98.8021 29.1753 98.7357 28.7886 98.6752 28.4381C98.6269 28.0755 98.5906 27.7854 98.5665 27.5679C98.5423 27.7854 98.5 28.0755 98.4396 28.4381C98.3912 28.7886 98.3308 29.1753 98.2583 29.5983C98.1858 30.0092 98.1072 30.4383 98.0226 30.8855C97.9501 31.3326 97.8715 31.7617 97.7869 32.1726C97.7144 32.5835 97.6419 32.9582 97.5694 33.2966C97.4969 33.635 97.4364 33.9009 97.3881 34.0943L94.1612 47.1289H87.7617L81.3803 20.6246H86.9096L89.919 35.0914C89.9553 35.2847 90.0036 35.5688 90.064 35.9434C90.1366 36.306 90.2151 36.7169 90.2997 37.1762C90.3843 37.6354 90.4689 38.1189 90.5535 38.6265C90.6502 39.1341 90.7408 39.6296 90.8255 40.113C90.9101 40.5965 90.9886 41.0497 91.0611 41.4727C91.1336 41.8836 91.188 42.222 91.2243 42.4879C91.2605 42.222 91.3089 41.8836 91.3693 41.4727C91.4418 41.0618 91.5143 40.6267 91.5869 40.1674C91.6594 39.6961 91.7379 39.2126 91.8225 38.7171C91.9192 38.2216 92.0038 37.7623 92.0763 37.3393C92.1489 36.9042 92.2153 36.5235 92.2758 36.1972C92.3483 35.8588 92.4027 35.6171 92.4389 35.4721L96.1191 20.6246H101.05L104.73 35.4721C104.767 35.6171 104.815 35.8588 104.875 36.1972C104.948 36.5235 105.02 36.9042 105.093 37.3393C105.177 37.7623 105.262 38.2216 105.347 38.7171C105.431 39.2126 105.51 39.6961 105.582 40.1674C105.667 40.6267 105.739 41.0618 105.8 41.4727C105.872 41.8836 105.927 42.222 105.963 42.4879C105.999 42.222 106.048 41.8836 106.108 41.4727C106.181 41.0497 106.259 40.5965 106.344 40.113C106.428 39.6296 106.513 39.1341 106.598 38.6265C106.694 38.1189 106.785 37.6354 106.869 37.1762C106.954 36.7169 107.027 36.306 107.087 35.9434C107.16 35.5688 107.214 35.2847 107.25 35.0914L110.26 20.6246H115.789L109.408 47.1289ZM124.744 33.0972H125.85C127.434 33.0972 128.624 32.783 129.422 32.1545C130.231 31.526 130.636 30.5048 130.636 29.0907C130.636 27.7734 130.274 26.8004 129.549 26.172C128.836 25.5435 127.712 25.2293 126.177 25.2293H124.744V33.0972ZM136.329 28.8913C136.329 30.0515 136.154 31.1634 135.803 32.227C135.453 33.2906 134.872 34.2272 134.063 35.037C133.265 35.8467 132.208 36.4933 130.89 36.9768C129.585 37.4602 127.965 37.7019 126.032 37.7019H124.744V47.1289H119.125V20.6246H126.485C128.189 20.6246 129.657 20.8179 130.89 21.2047C132.135 21.5793 133.156 22.1232 133.954 22.8363C134.764 23.5373 135.362 24.4014 135.749 25.4287C136.135 26.4439 136.329 27.5981 136.329 28.8913Z" fill="#3E00B3"/>
<defs>
<linearGradient id="paint0_linear_1759_4096" x1="-2.27543" y1="13.0839" x2="32.0857" y2="13.0839" gradientUnits="userSpaceOnUse">
<stop stop-color="#FFA5F6"/>
<stop offset="0.48" stop-color="#8D1AF1"/>
<stop offset="1" stop-color="#521C89"/>
</linearGradient>
<linearGradient id="paint1_linear_1759_4096" x1="37.6758" y1="3.92187" x2="37.6758" y2="47.2573" gradientUnits="userSpaceOnUse">
<stop stop-color="#7900B2"/>
<stop offset="1" stop-color="#5900FF"/>
</linearGradient>
<linearGradient id="paint2_linear_1759_4096" x1="0.0695618" y1="15.2178" x2="34.4307" y2="15.2178" gradientUnits="userSpaceOnUse">
<stop stop-color="#FFA5F6"/>
<stop offset="0.48" stop-color="#8D1AF1"/>
<stop offset="1" stop-color="#521C89"/>
</linearGradient>
<linearGradient id="paint3_linear_1759_4096" x1="-2.27542" y1="16.1123" x2="32.0857" y2="16.1123" gradientUnits="userSpaceOnUse">
<stop stop-color="#FFA5F6"/>
<stop offset="0.48" stop-color="#8D1AF1"/>
<stop offset="1" stop-color="#521C89"/>
</linearGradient>
<linearGradient id="paint4_linear_1759_4096" x1="-2.27576" y1="9.30292" x2="32.0845" y2="9.30292" gradientUnits="userSpaceOnUse">
<stop stop-color="#FFA5F6"/>
<stop offset="0.48" stop-color="#8D1AF1"/>
<stop offset="1" stop-color="#521C89"/>
</linearGradient>
<linearGradient id="paint5_linear_1759_4096" x1="-2.27626" y1="8.06176" x2="32.0858" y2="8.06176" gradientUnits="userSpaceOnUse">
<stop stop-color="#FFA5F6"/>
<stop offset="0.48" stop-color="#8D1AF1"/>
<stop offset="1" stop-color="#521C89"/>
</linearGradient>
<linearGradient id="paint6_linear_1759_4096" x1="-2.27531" y1="2.34266" x2="32.0859" y2="2.34266" gradientUnits="userSpaceOnUse">
<stop stop-color="#FFA5F6"/>
<stop offset="0.48" stop-color="#8D1AF1"/>
<stop offset="1" stop-color="#521C89"/>
</linearGradient>
<linearGradient id="paint7_linear_1759_4096" x1="-5.06392" y1="13.0839" x2="29.2972" y2="13.0839" gradientUnits="userSpaceOnUse">
<stop stop-color="#FFA5F6"/>
<stop offset="0.48" stop-color="#8D1AF1"/>
<stop offset="1" stop-color="#521C89"/>
</linearGradient>
<clipPath id="clip0_1759_4096">
<rect width="51.9818" height="47.2562" fill="white" transform="translate(0.886963)"/>
</clipPath>
</defs>
</svg>
