<svg width="1093" height="302" viewBox="0 0 1093 302" fill="none" xmlns="http://www.w3.org/2000/svg">
<g clip-path="url(#clip0_1899_3778)">
<g filter="url(#filter0_i_1899_3778)">
<path d="M45.3276 127.262C45.3276 197.439 87.6565 238.654 126.644 227.886C149.665 221.574 162.66 204.122 162.66 173.304C162.66 113.524 120.331 74.1652 86.5426 74.1652C56.8381 74.1652 45.3276 100.899 45.3276 127.262ZM23.0492 44.4607C23.0492 20.3258 18.5935 11.0431 6.71171 8.07265L5.9691 6.21612L45.3276 -12.3492V94.5871C58.3233 78.9922 77.6312 68.2243 103.994 68.2243C206.846 68.2243 206.846 232.713 103.994 232.713C72.433 232.713 54.2389 214.519 45.3276 203.009L26.7623 229H23.0492V44.4607ZM203.072 33.6928C214.211 29.9797 218.295 25.524 222.009 14.3849C225.722 25.524 229.806 29.9797 240.945 33.6928C229.806 37.4059 225.722 41.4902 222.009 52.6294C218.295 41.4902 214.211 37.4059 203.072 33.6928ZM194.903 91.2453L194.161 89.3888L233.519 70.8234V190.755C233.519 214.89 239.831 223.802 250.599 227.143V229H194.161V227.143C204.928 223.802 211.241 214.89 211.241 190.755V127.633C211.241 103.498 207.156 94.2158 194.903 91.2453ZM289.27 204.122V75.6504H265.507V73.7939H267.734C292.983 73.7939 305.979 57.0851 311.549 37.0346V73.7939H336.055V75.6504H311.549V210.435C311.549 217.861 312.662 227.886 323.059 227.886C326.772 227.886 331.228 226.03 335.312 223.43L336.055 225.287C315.633 237.169 289.27 238.283 289.27 204.122ZM489.187 70.0808C520.005 70.0808 560.106 81.5913 560.106 125.034V210.435C560.106 217.861 561.22 227.886 571.617 227.886C575.33 227.886 579.786 226.03 583.87 223.43L584.612 225.287C564.191 237.169 537.828 238.283 537.828 204.122V175.903C528.174 216.004 494.385 232.713 466.537 232.713C440.546 232.713 417.525 217.489 417.525 192.612C417.525 135.802 512.95 156.224 512.95 114.266C512.95 98.6714 498.098 89.0175 481.389 89.0175C472.849 89.0175 465.794 91.2453 456.883 96.4436C454.655 97.9288 452.427 96.8149 450.571 98.6714L452.427 94.5871C461.339 90.5027 469.507 87.1609 479.161 87.1609C497.727 87.1609 514.807 95.701 514.807 114.638C514.807 154.367 442.031 141.743 442.031 190.013C442.031 213.776 459.482 226.401 479.161 226.401C515.178 226.401 537.828 191.498 537.828 158.08V103.87C537.828 89.0175 526.689 73.7939 505.153 73.7939C478.419 73.7939 460.596 98.6714 450.571 98.6714C445.373 98.6714 440.917 95.701 440.917 90.1314C440.546 74.1652 480.275 70.0808 489.187 70.0808ZM707.042 226.772C737.489 226.772 748.628 200.781 748.628 174.418C748.628 70.4521 631.296 37.7772 631.296 127.262C631.296 171.076 659.886 226.772 707.042 226.772ZM631.296 206.35V96.4436C644.291 80.8487 663.971 68.2243 689.962 68.2243C792.814 68.2243 792.814 232.713 689.962 232.713C663.971 232.713 644.291 221.945 631.296 206.35ZM631.296 70.8234V263.532C631.296 287.666 637.608 296.578 648.376 299.92V301.776H591.937V299.92C602.705 296.578 609.017 287.666 609.017 263.532V127.633C609.017 103.498 604.933 94.2158 592.68 91.2453L591.937 89.3888L631.296 70.8234ZM895.596 226.772C926.043 226.772 937.183 200.781 937.183 174.418C937.183 70.4521 819.85 37.7772 819.85 127.262C819.85 171.076 848.44 226.772 895.596 226.772ZM819.85 206.35V96.4436C832.845 80.8487 852.525 68.2243 878.516 68.2243C981.368 68.2243 981.368 232.713 878.516 232.713C852.525 232.713 832.845 221.945 819.85 206.35ZM819.85 70.8234V263.532C819.85 287.666 826.162 296.578 836.93 299.92V301.776H780.491V299.92C791.259 296.578 797.571 287.666 797.571 263.532V127.633C797.571 103.498 793.487 94.2158 781.234 91.2453L780.491 89.3888L819.85 70.8234ZM987.239 207.464C1002.46 207.836 1019.54 223.059 1045.16 223.059C1063.73 223.059 1077.84 214.519 1077.84 194.468C1077.84 146.941 970.902 173.675 970.902 117.237C970.902 96.4436 990.21 68.2243 1031.05 68.2243C1039.59 68.2243 1072.27 69.7095 1072.27 83.4479C1072.27 89.0175 1067.44 91.9879 1062.61 91.9879C1052.22 91.9879 1040.34 76.0217 1013.6 76.0217C997.264 76.0217 980.184 85.3044 980.184 104.612C980.184 148.426 1086.01 123.178 1086.01 183.329C1086.38 204.494 1067.07 232.713 1026.23 232.713C1016.2 232.713 975.729 231.228 976.1 216.376C976.1 211.92 979.813 207.464 987.239 207.464Z" fill="#ECEDF6"/>
</g>
</g>
<defs>
<filter id="filter0_i_1899_3778" x="5.96899" y="-12.3496" width="1083.27" height="316.983" filterUnits="userSpaceOnUse" color-interpolation-filters="sRGB">
<feFlood flood-opacity="0" result="BackgroundImageFix"/>
<feBlend mode="normal" in="SourceGraphic" in2="BackgroundImageFix" result="shape"/>
<feColorMatrix in="SourceAlpha" type="matrix" values="0 0 0 0 0 0 0 0 0 0 0 0 0 0 0 0 0 0 127 0" result="hardAlpha"/>
<feOffset dx="2.85799" dy="2.85799"/>
<feGaussianBlur stdDeviation="7.14497"/>
<feComposite in2="hardAlpha" operator="arithmetic" k2="-1" k3="1"/>
<feColorMatrix type="matrix" values="0 0 0 0 0.466667 0 0 0 0 0.466667 0 0 0 0 0.466667 0 0 0 0.05 0"/>
<feBlend mode="normal" in2="shape" result="effect1_innerShadow_1899_3778"/>
</filter>
<clipPath id="clip0_1899_3778">
<rect width="1093" height="302" fill="white"/>
</clipPath>
</defs>
</svg>
