<svg width="54" height="54" viewBox="0 0 54 54" fill="none" xmlns="http://www.w3.org/2000/svg">
<path d="M50.2956 16.422C48.8209 9.45985 44.6994 4.98614 37.702 3.38594C30.9301 1.83709 24.1053 1.89186 17.2993 3.11211C14.0185 3.69914 10.9666 4.93138 8.45133 7.23497C5.48321 9.95788 4.07006 13.4852 3.35921 17.3376C2.33908 22.8724 2.37155 28.4363 3.04138 34.0087C3.14562 34.6831 3.23447 35.3591 3.35751 36.0282C4.72281 43.4645 8.86998 48.3352 16.3817 49.9765C23.1057 51.4466 29.8775 51.4038 36.6289 50.163C39.9148 49.5589 42.9667 48.3267 45.4581 45.9923C48.9149 42.7542 50.1965 38.5304 50.7979 34.0087C51.4883 28.1231 51.5293 22.2494 50.2956 16.422Z" fill="#00FFA3" stroke="#141844" stroke-width="4.03285"/>
<rect x="17.6448" y="24.4707" width="4.27482" height="4.27482" rx="2.13741" fill="#141844"/>
<rect x="31.8406" y="24.4707" width="4.27482" height="4.27482" rx="2.13741" fill="#141844"/>
<path d="M29.0981 26.6081C29.0981 26.8888 29.0428 27.1667 28.9354 27.4261C28.8279 27.6854 28.6705 27.921 28.472 28.1195C28.2736 28.318 28.0379 28.4754 27.7786 28.5828C27.5193 28.6902 27.2413 28.7455 26.9607 28.7455C26.68 28.7455 26.402 28.6902 26.1427 28.5828C25.8834 28.4754 25.6478 28.318 25.4493 28.1195C25.2508 27.921 25.0934 27.6854 24.9859 27.4261C24.8785 27.1667 24.8232 26.8888 24.8232 26.6081L26.9607 26.6081H29.0981Z" fill="#141844"/>
</svg>
