<svg width="53" height="52" viewBox="0 0 53 52" fill="none" xmlns="http://www.w3.org/2000/svg">
<rect x="0.5" width="52" height="52" rx="12.74" fill="#FF4F00"/>
<rect x="1" y="0.5" width="51" height="51" rx="12.24" stroke="white" stroke-opacity="0.2"/>
<path fill-rule="evenodd" clip-rule="evenodd" d="M16.6966 20.0356L25.9832 11.3927C28.1106 9.41277 31.4131 9.5618 33.3596 11.7256C35.3062 13.8894 35.1597 17.2485 33.0323 19.2284L31.9484 20.2371C32.7896 20.5093 33.5743 21.0024 34.213 21.7123C36.1596 23.8761 36.013 27.2352 33.8856 29.2151L32.366 30.6294C33.2073 30.9015 33.9921 31.3946 34.6308 32.1046C36.5773 34.2684 36.4308 37.6275 34.3035 39.6073C32.1761 41.5873 28.8736 41.4381 26.927 39.2744C25.8764 38.1066 25.4355 36.5906 25.5868 35.1312C24.1441 35.155 22.6986 34.5741 21.6481 33.4063C20.5976 32.2385 20.1568 30.7227 20.3078 29.2633C18.8653 29.2872 17.4197 28.7062 16.3692 27.5384C14.4226 25.3746 14.5692 22.0155 16.6966 20.0356ZM18.6325 22.1877C17.6737 23.08 17.6077 24.594 18.485 25.5693C19.3623 26.5445 20.8508 26.6117 21.8096 25.7194L31.0963 17.0764C32.0552 16.184 32.1212 14.67 31.2438 13.6947C30.3665 12.7195 28.878 12.6523 27.9192 13.5447L18.6325 22.1877ZM23.9115 28.0555C22.9527 28.9479 22.8866 30.4619 23.7639 31.4372C24.6413 32.4124 26.1297 32.4796 27.0886 31.5872L31.9497 27.063C32.9085 26.1707 32.9745 24.6567 32.0972 23.6815C31.2198 22.7062 29.7314 22.639 28.7726 23.5314L23.9115 28.0555ZM29.0428 37.3052C28.1655 36.33 28.2315 34.816 29.1903 33.9237C30.1492 33.0313 31.6377 33.0985 32.515 34.0738C33.3924 35.049 33.3263 36.563 32.3675 37.4553C31.4087 38.3477 29.9202 38.2805 29.0428 37.3052Z" fill="white"/>
</svg>
