<svg width="53" height="52" viewBox="0 0 53 52" fill="none" xmlns="http://www.w3.org/2000/svg">
<rect x="0.5" width="52" height="52" rx="12.74" fill="#D9D9D9"/>
<rect x="0.5" width="52" height="52" rx="12.74" fill="url(#paint0_linear_1655_3805)"/>
<rect x="1" y="0.5" width="51" height="51" rx="12.24" stroke="white" stroke-opacity="0.2"/>
<g filter="url(#filter0_d_1655_3805)">
<path d="M33.8066 24.8508C34.3206 25.0221 34.7776 25.1364 35.1774 25.3077C37.6334 26.3929 39.1756 28.2206 39.6896 30.7907C40.3179 33.7607 39.2327 36.5593 36.6624 38.4441C35.2345 39.4721 33.6352 39.9291 31.8646 39.9291C29.3515 39.9291 26.8384 39.9862 24.2681 39.9862C23.9254 39.9862 23.5827 39.8719 23.2971 39.7006C22.7831 39.3579 22.6689 38.901 22.8402 38.3299C23.0116 37.8158 23.4114 37.4731 24.0396 37.416C25.4676 37.416 26.8384 37.416 28.2663 37.416C29.6371 37.416 31.0079 37.416 32.3787 37.416C34.8918 37.416 37.0622 35.1885 37.1765 32.6755C37.2907 30.1053 35.4059 27.935 32.9498 27.421C32.8356 27.421 32.7214 27.421 32.6071 27.421C30.2654 27.421 27.9236 27.421 25.5818 27.421C25.5247 27.421 25.4676 27.421 25.3533 27.421C25.3533 27.935 25.3533 28.449 25.3533 29.0202C25.3533 29.5913 25.3533 30.1625 25.3533 30.7336C25.3533 31.0192 25.4104 31.1334 25.7531 31.1334C27.1811 31.1334 28.609 31.1334 29.9798 31.1334C30.2082 31.1334 30.4367 31.0192 30.6081 30.8478C31.6362 29.9911 32.55 30.1625 33.2925 30.6194C34.2635 31.3048 34.492 32.3899 34.0351 33.418C33.4639 34.5603 31.7504 34.9601 30.7794 34.0463C30.4938 33.7607 30.2082 33.6464 29.8084 33.6464C27.9236 33.6464 26.0387 33.6464 24.1539 33.6464C23.2971 33.6464 22.8402 33.1895 22.8402 32.3328C22.8402 30.2196 22.8402 28.1634 22.8402 26.0502C22.8402 25.1935 23.1258 24.7937 24.0396 24.7366C25.4104 24.6794 26.7812 24.6795 28.152 24.6795C31.2363 24.6795 33.5781 21.9951 33.1212 18.9109C32.7785 16.7976 31.1221 15.2555 29.2373 14.7986C28.7803 14.6844 28.3234 14.6844 27.8665 14.6844C24.6108 14.6844 21.298 14.6273 18.0424 14.6844C17.2999 14.6844 16.5574 14.0561 16.5574 13.3136C16.5574 12.5711 17.2428 12 18.0424 12C20.0415 12 22.0406 12 24.0396 12C25.4104 12 26.7812 12 28.152 12C31.579 12.0571 34.6062 14.2275 35.5772 17.6543C36.2626 20.0532 35.7486 22.2806 34.2635 24.3368C34.0351 24.5081 33.9208 24.6223 33.8066 24.8508Z" fill="#F54756"/>
<path d="M19.0705 21.0246C19.0705 21.3102 19.0705 21.4816 19.0705 21.71C19.0705 26.3363 19.0705 30.9626 19.0705 35.5889C19.0705 36.5598 19.0705 37.5308 19.0705 38.5589C19.0705 39.7011 18.2137 40.2723 17.1285 39.8725C16.5574 39.644 16.5002 39.0729 16.5002 38.5589C16.5002 36.9025 16.5002 35.3033 16.5002 33.647C16.5002 29.2492 16.5002 24.8513 16.5002 20.4535C16.5002 20.1679 16.5002 19.9395 16.5574 19.6539C16.6145 18.9685 17.1285 18.5687 17.7568 18.5687C20.3842 18.5687 23.0115 18.5687 25.696 18.5687C26.0387 18.5687 26.2672 18.5687 26.5528 18.2831C27.1811 17.5407 28.4376 17.6549 28.9517 17.8833C29.8084 18.3403 30.2653 19.1399 30.2082 20.0537C30.094 20.9675 29.4657 21.71 28.5519 21.9385C27.7522 22.1669 27.0668 21.8243 26.4385 21.3102C26.3243 21.196 26.2101 21.1389 26.0387 21.0818C23.6969 20.9675 21.4694 21.0246 19.0705 21.0246Z" fill="#F54756"/>
</g>
<defs>
<filter id="filter0_d_1655_3805" x="16.3123" y="12" width="24.8669" height="29.5033" filterUnits="userSpaceOnUse" color-interpolation-filters="sRGB">
<feFlood flood-opacity="0" result="BackgroundImageFix"/>
<feColorMatrix in="SourceAlpha" type="matrix" values="0 0 0 0 0 0 0 0 0 0 0 0 0 0 0 0 0 0 127 0" result="hardAlpha"/>
<feOffset dx="0.563751" dy="0.751668"/>
<feGaussianBlur stdDeviation="0.375834"/>
<feComposite in2="hardAlpha" operator="out"/>
<feColorMatrix type="matrix" values="0 0 0 0 0 0 0 0 0 0 0 0 0 0 0 0 0 0 0.25 0"/>
<feBlend mode="normal" in2="BackgroundImageFix" result="effect1_dropShadow_1655_3805"/>
<feBlend mode="normal" in="SourceGraphic" in2="effect1_dropShadow_1655_3805" result="shape"/>
</filter>
<linearGradient id="paint0_linear_1655_3805" x1="26.5" y1="0" x2="26.5" y2="52" gradientUnits="userSpaceOnUse">
<stop stop-color="#010B2C"/>
<stop offset="1" stop-color="#1C2233"/>
</linearGradient>
</defs>
</svg>
