<svg width="53" height="52" viewBox="0 0 53 52" fill="none" xmlns="http://www.w3.org/2000/svg">
<rect x="0.5" width="52" height="52" rx="12.74" fill="#D9D9D9"/>
<rect x="0.5" width="52" height="52" rx="12.74" fill="url(#paint0_linear_1655_3811)"/>
<rect x="0.5" width="52" height="52" rx="12.74" fill="url(#paint1_linear_1655_3811)"/>
<rect x="1" y="0.5" width="51" height="51" rx="12.24" stroke="white" stroke-opacity="0.2"/>
<path d="M33.2387 38.6143C33.2373 34.9063 33.2373 31.2262 33.2373 27.5241C33.1282 27.5166 33.0411 27.5055 32.9541 27.5055C29.8775 27.5046 26.801 27.4993 23.7244 27.5076C22.5594 27.5108 21.5221 27.8457 20.7288 28.7589C20.3325 29.215 20.0617 29.7371 20.0484 30.3377C20.0204 31.5977 19.9999 32.8603 20.05 34.1189C20.0948 35.2451 20.7988 35.9664 21.7331 36.4977C22.3769 36.8638 23.0823 36.9569 23.8027 36.9611C25.3459 36.97 26.8893 36.9684 28.4326 36.962C29.1079 36.9592 29.6214 37.2159 29.9356 37.8285C30.403 38.7397 29.7349 39.9481 28.7124 39.961C26.7561 39.9858 24.7944 40.0458 22.8436 39.9372C20.4294 39.8027 17.8899 38.0465 17.1742 35.3117C17.0584 34.8691 17.0249 34.396 17.0174 33.9359C16.9979 32.736 16.989 31.5347 17.022 30.3353C17.0679 28.6625 17.7866 27.295 19.0182 26.1831C19.0835 26.124 19.1509 26.0671 19.1959 26.0278C18.8166 25.5939 18.4171 25.1942 18.0847 24.7449C17.3502 23.7518 16.9905 22.6283 17.0057 21.3845C17.0196 20.2448 16.99 19.1044 17.0169 17.9652C17.0631 16.0067 17.9284 14.4677 19.5042 13.3285C20.7314 12.4414 22.109 11.9982 23.6299 12C27.3015 12.0043 30.9732 11.9999 34.6449 12.0021C35.4922 12.0027 36.0904 12.4803 36.2228 13.2455C36.3783 14.1445 35.7524 14.9459 34.841 15.0109C34.7105 15.0202 34.5789 15.016 34.4478 15.016C30.8971 15.0162 27.3465 15.0124 23.7959 15.0186C22.8281 15.0203 21.9157 15.2238 21.1482 15.8661C20.4383 16.4602 20.0267 17.2018 20.0251 18.144C20.0232 19.2132 20.0219 20.2825 20.0253 21.3517C20.0292 22.5948 20.6854 23.4207 21.7231 24.0079C22.3586 24.3675 23.049 24.4706 23.7615 24.4712C27.3727 24.474 30.9838 24.4721 34.595 24.4729C35.6685 24.4731 36.2758 25.1279 36.2714 26.1978C36.2571 29.6878 36.2633 33.178 36.2617 36.668C36.2614 37.2531 36.2646 37.8382 36.2608 38.4232C36.2553 39.2928 35.6662 39.9341 34.8233 39.9942C34.0369 40.0503 33.3755 39.4854 33.2387 38.6143Z" fill="white"/>
<path d="M36.8834 20.2327C36.5856 21.4637 35.4323 22.1721 34.2291 21.8857C33.0497 21.605 32.3329 20.4476 32.6018 19.2583C32.8649 18.0949 34.0333 17.3466 35.1883 17.6018C36.4117 17.8721 37.1468 18.9988 36.8834 20.2327Z" fill="white"/>
<defs>
<linearGradient id="paint0_linear_1655_3811" x1="26.5" y1="0" x2="26.5" y2="52" gradientUnits="userSpaceOnUse">
<stop stop-color="#010B2C"/>
<stop offset="1" stop-color="#1C2233"/>
</linearGradient>
<linearGradient id="paint1_linear_1655_3811" x1="26.5" y1="0" x2="26.5" y2="52" gradientUnits="userSpaceOnUse">
<stop stop-color="#7C00FF"/>
<stop offset="1" stop-color="#6220A7"/>
</linearGradient>
</defs>
</svg>
