<svg width="53" height="52" viewBox="0 0 53 52" fill="none" xmlns="http://www.w3.org/2000/svg">
<rect x="0.5" width="52" height="52" rx="12.74" fill="#D9D9D9"/>
<rect x="0.5" width="52" height="52" rx="12.74" fill="url(#paint0_linear_1655_3838)"/>
<rect x="0.5" width="52" height="52" rx="12.74" fill="url(#paint1_linear_1655_3838)"/>
<rect x="1" y="0.5" width="51" height="51" rx="12.24" stroke="white" stroke-opacity="0.2"/>
<path fill-rule="evenodd" clip-rule="evenodd" d="M26.4419 13C23.6896 13 21.4585 15.1657 21.4585 17.8372C21.4585 20.5087 23.6896 22.6744 26.4419 22.6744C29.1943 22.6744 31.4253 20.5087 31.4253 17.8372C31.4253 15.1657 29.1943 13 26.4419 13ZM16.6982 22.4104C21.8857 22.4104 26.0909 26.4923 26.0909 31.5275V39H21.419V31.5275C21.419 30.9911 21.3241 30.4766 21.1497 29.9983L14.2873 36.6594L10.9837 33.4527L17.6016 27.0291C17.3092 26.9741 17.0072 26.9453 16.6982 26.9453H9V22.4104H16.6982ZM36.3019 22.4104C31.1145 22.4104 26.9091 26.4923 26.9091 31.5275V39H31.581V31.5275C31.581 31.1075 31.6393 30.7006 31.7483 30.3142L38.9269 37.2822L42.2306 34.0754L35.052 27.1076C35.45 27.0018 35.8693 26.9453 36.3019 26.9453H44V22.4104H36.3019Z" fill="white"/>
<defs>
<linearGradient id="paint0_linear_1655_3838" x1="26.5" y1="0" x2="26.5" y2="52" gradientUnits="userSpaceOnUse">
<stop stop-color="#010B2C"/>
<stop offset="1" stop-color="#1C2233"/>
</linearGradient>
<linearGradient id="paint1_linear_1655_3838" x1="26.5" y1="0" x2="26.5" y2="52" gradientUnits="userSpaceOnUse">
<stop stop-color="#5700FA"/>
<stop offset="1" stop-color="#5B17DA"/>
</linearGradient>
</defs>
</svg>
